<svg id="Layer_1" data-name="Layer 1" xmlns="http://www.w3.org/2000/svg" xmlns:xlink="http://www.w3.org/1999/xlink" viewBox="0 0 538 475"><defs><style>.cls-1{fill:none;}.cls-2{opacity:0.25;}.cls-3{fill:#cfd3d9;}.cls-11,.cls-4,.cls-7{fill:#0b1320;}.cls-5{opacity:0.35;}.cls-6{fill:#fe6933;}.cls-11,.cls-7{stroke:#0b1320;stroke-width:0.5px;}.cls-7{stroke-miterlimit:10;}.cls-8{clip-path:url(#clip-path);}.cls-9{fill:#d27041;}.cls-10{fill:#fff;}.cls-11{stroke-linecap:round;stroke-linejoin:round;}.cls-12{fill:#202739;}.cls-13{fill:#f3a368;}.cls-14{fill:#5d6476;}.cls-15{fill:#d27042;}.cls-16{fill:#284cc7;}.cls-17{clip-path:url(#clip-path-2);}.cls-18{fill:#f7f7f7;}.cls-19{clip-path:url(#clip-path-3);}.cls-20{clip-path:url(#clip-path-4);}.cls-21{fill:#ffc802;}.cls-22{clip-path:url(#clip-path-5);}.cls-23{fill:#ffc800;}.cls-24{fill:#b4dd63;}.cls-25{clip-path:url(#clip-path-6);}.cls-26{clip-path:url(#clip-path-7);}.cls-27{clip-path:url(#clip-path-8);}.cls-28{fill:#091321;}</style><clipPath id="clip-path"><path class="cls-1" d="M469.85,247.68l.7-.22L473.82,161l-2.14-50.44L369.23,66.63l-102.62,85,23.47,79.93,16.75,67.23C366,364.53,510.39,281.77,469.85,247.68Z"/></clipPath><clipPath id="clip-path-2"><path class="cls-1" d="M429.61,286.17l-31.95-.56s-4.37-.43-4.82,8.9.47,34.62,26.42,35.36S442.4,305.7,439,298.81A46.22,46.22,0,0,0,429.61,286.17Z"/></clipPath><clipPath id="clip-path-3"><path class="cls-1" d="M384.29,165.23s6.36,8.76,16.42,6.31c0,0-6,10.4-13.43,8.23S384.29,165.23,384.29,165.23Z"/></clipPath><clipPath id="clip-path-4"><path class="cls-1" d="M428.86,219.48h0a51.72,51.72,0,0,0-3.72-4.85l-.56-.67a87.44,87.44,0,0,0-9.17-9.45c-1.88-1.79-3.16-2.92-3.16-2.92s-13.52-10.34-21-10.34a10.31,10.31,0,0,0-4.83,1.33l.17-.38c-8.66,3.16-19.15,19.31-19.15,19.31l-18.29,23-10.53-43.16-31.3-.55,5.51,24.31A73.57,73.57,0,0,0,320,234.22c14.41,26.36,34.68,18.45,43.67,13.06-1.23,6.11-2,10.31-2,10.31l31,1.09c.05,3.93.23,7.85.56,12.4l18.46.51s22.64,2.86,27.77-16.24C442.39,244.51,437.13,231,428.86,219.48Z"/></clipPath><clipPath id="clip-path-5"><path class="cls-1" d="M99.67,89.35,102.45,62l17.74-35.9L193,18.45,303.5,29l36.91,91.21-94.35,68.1L197,183.07c-16.23-1.72-30.22-3.19-30.22-3.17C129.75,202.53,48.06,142.6,99.67,89.35Z"/></clipPath><clipPath id="clip-path-6"><path class="cls-1" d="M173.4,84.72c-14.65-12.43-39.52,1.26-45,4.26-17.58,9.6-21.51,15.18-50.15,44.8C58.42,154.26,102.38,186,107.1,188a.55.55,0,0,0,.56-.11c35-31,54-55.46,61.81-68.2a.54.54,0,0,1,.74-.19l13.6,10.8c.26.15-3.76-8.11-3.61-8.37l4.43-14.83s10.45-5.41,11.14-5.58Z"/></clipPath><clipPath id="clip-path-7"><path class="cls-1" d="M201.19,25.54s5.23,32.63,3.66,50.87-17,14.62-24.41,10-6.6-20.1-6.6-20.1l-5.11-7.34.66-7.7,1.47-17.1,5.39-5.86Z"/></clipPath><clipPath id="clip-path-8"><path class="cls-1" d="M186.77,71s6.75,5,15.19,0c0,0,1.22,6.21-5.76,7.82C188.91,80.46,186.77,71,186.77,71Z"/></clipPath></defs><g class="cls-2"><path class="cls-3" d="M49.69,301.18H180.27c2.8,0,5.6,0,8.4,0a28.06,28.06,0,0,0-4-20.76c-7-10.58-20.06-15.48-30.75-7.2-3.34,2.58-6.18,5.75-9.29,8.6,0-4.35-2-8.65-3.68-12.6a31.39,31.39,0,0,0-6.94-10.6,28.27,28.27,0,0,0-22.54-8.17C95.83,252,84,267,83.63,282.33c-6.08-2.89-12.4-5.25-19.12-2.89C55.5,282.61,51.58,292.62,49.69,301.18Z"/></g><path class="cls-3" d="M458,93.6H518s-4.38-21.36-18.27-21.36A16.7,16.7,0,0,0,483,84.59S466,69.16,458,93.6Z"/><path class="cls-4" d="M458,94.35H518a.76.76,0,0,0,.72-.95c-1.22-5.94-3.92-12.21-8-16.7a15.11,15.11,0,0,0-12.05-5.18,17.41,17.41,0,0,0-12.67,6,17.1,17.1,0,0,0-3.69,6.91l1.26-.33c-5.4-4.89-13.9-7.2-19.79-1.86-3.23,2.93-5.08,7.14-6.42,11.2-.31.92,1.14,1.31,1.44.4,1.82-5.49,5.11-12.36,11.59-13.19,3.59-.46,7.18,1,10.12,3a17.75,17.75,0,0,1,2,1.51.75.75,0,0,0,1.25-.33c1.46-6.29,7.25-10.91,13.52-11.66a13.72,13.72,0,0,1,11.87,4.1,29.5,29.5,0,0,1,6.14,10.08,39,39,0,0,1,2,6.49l.73-1H458A.75.75,0,0,0,458,94.35Z"/><path class="cls-3" d="M484.15,81.51A16,16,0,0,0,482.79,88"/><path class="cls-4" d="M483.51,81.13A14.77,14.77,0,0,0,482,88a.75.75,0,0,0,1.5,0,11.93,11.93,0,0,1,.58-4.14c.14-.5.31-1,.5-1.48a3.52,3.52,0,0,1,.18-.45c-.09.15-.05.11,0,0a.76.76,0,0,0-.27-1,.74.74,0,0,0-1,.26Z"/><path class="cls-4" d="M174,345.66c14.16-7.85,27.85-16.53,41.49-25.22q7-4.47,14-9c.81-.52.06-1.82-.75-1.29-14.93,9.62-29.89,19.23-45.18,28.27q-5.12,3-10.31,5.92c-.84.47-.08,1.76.76,1.3Z"/><g class="cls-5"><path class="cls-3" d="M108.44,301.18h383.5S464,164.57,375.08,164.57s-107,79-107,79S159.46,144.82,108.44,301.18Z"/><path class="cls-3" d="M275.5,223.87s-10.08,22.27-8.77,41.25"/></g><path class="cls-6" d="M327,347.08a107.09,107.09,0,0,1-19.22-49.28S465,242.88,465.06,242.88c44.31,19.71,70.07,123.63-24.45,152.16C303.35,436.48,108.28,325.39,59.46,241.15-2.09,134.94,99.67,88.85,99.67,88.85s67.11,90.32,67.11,90.55c-22.85,30.62-58.31,39-75.26,41.25l0,0C108,251.08,236.43,351,327.05,347.11Z"/><path class="cls-4" d="M90.83,221.05A60.61,60.61,0,0,0,99,232a196.71,196.71,0,0,0,14,14,429.44,429.44,0,0,0,41.52,33.11,524.71,524.71,0,0,0,53.82,33.63c18.54,10.05,37.79,19,57.82,25.62,17.62,5.85,36.23,10.15,54.89,9.83q3,0,6-.28c.95-.07,1-1.57,0-1.5-18.1,1.38-36.32-2.13-53.59-7.31-20-6-39.25-14.49-57.76-24.14a514.91,514.91,0,0,1-54.22-32.79,457.29,457.29,0,0,1-43.31-33.52c-5.23-4.62-10.34-9.4-15.14-14.46a84,84,0,0,1-9.54-11.58c-.48-.74-.94-1.49-1.36-2.27s-1.76-.09-1.3.76Z"/><path class="cls-4" d="M99.67,88.85s67.11,90.32,67.11,90.55C129.75,202,48.06,142.1,99.67,88.85Z"/><path class="cls-4" d="M99,89.23l6.67,9q8,10.74,16,21.49,9.68,13,19.32,26l16.81,22.68c1.85,2.51,3.7,5,5.55,7.53l1.74,2.36a7.36,7.36,0,0,0,.92,1.27c.11.1.15.35.05,0l.35-.85c-7.48,4.54-16.49,5.5-25,4.38A68.65,68.65,0,0,1,114,172.87a71.46,71.46,0,0,1-21.8-21c-5.39-8.25-8.71-17.88-8.42-27.8.33-11.53,5.56-22.2,12.92-30.88,1.11-1.31,2.27-2.58,3.46-3.82.67-.7-.38-1.76-1.06-1.06-8.41,8.72-15,19.44-16.5,31.64-1.27,10.13,1.24,20.34,6.19,29.19a70.41,70.41,0,0,0,21.08,22.77,72.83,72.83,0,0,0,27.82,12.14c8.86,1.69,18.35,1.44,26.61-2.49,1-.46,1.9-1,2.82-1.52a.77.77,0,0,0,.34-.85,9.75,9.75,0,0,0-1.82-2.58l-4.84-6.57q-8-10.85-16.05-21.68l-19.4-26.13L108.61,99.63c-2.71-3.65-5.3-7.47-8.17-11l-.12-.16C99.75,87.7,98.45,88.45,99,89.23Z"/><path class="cls-4" d="M152.32,193.78c-7.49,4-16.38,4.21-24.56,2.57A71.68,71.68,0,0,1,101,184.44a77.34,77.34,0,0,1-21.53-22.57c-5.34-8.7-8.64-18.71-8.45-29,.22-11.67,5-22.64,12.27-31.66,1.06-1.33,2.18-2.62,3.32-3.87.65-.71-.41-1.78-1.06-1.06-8.26,9-14.41,20-15.76,32.36-1.15,10.54,1.42,21.14,6.36,30.44a80,80,0,0,0,48.09,38c8.48,2.19,17.85,2.66,26.08-.73.94-.38,1.85-.81,2.75-1.28s.09-1.75-.76-1.3Z"/><path class="cls-4" d="M307.82,297.8S465,242.88,465.06,242.88C523.11,273.94,369.37,366.22,307.82,297.8Z"/><path class="cls-4" d="M308,298.52l4.44-1.55,12.14-4.24,17.77-6.21L363.92,279l23.53-8.21,23.35-8.16,21.37-7.46L449.71,249,461.34,245l3.05-1.07a3.71,3.71,0,0,0,.71-.24s.1,0,.14,0-.39,0-.4,0c.09.2.82.46,1,.57,4.19,2.43,8.11,5.77,10.05,10.31a17.88,17.88,0,0,1,.32,12.24A38.66,38.66,0,0,1,468.52,280a84.56,84.56,0,0,1-14.25,13.14A135.38,135.38,0,0,1,435,305a158.68,158.68,0,0,1-22.68,9.41,151.37,151.37,0,0,1-24.56,5.88,122.44,122.44,0,0,1-25.16,1.26A91.54,91.54,0,0,1,338.65,317a72.53,72.53,0,0,1-21.35-11.4,70.86,70.86,0,0,1-8.95-8.37c-.65-.72-1.71.34-1.06,1.06A71.3,71.3,0,0,0,327,313.65a81.22,81.22,0,0,0,23.18,7.91,106.88,106.88,0,0,0,24.94,1.51,139.29,139.29,0,0,0,25.29-3.72,160.94,160.94,0,0,0,24.14-7.88A152.79,152.79,0,0,0,446,300.54a111.29,111.29,0,0,0,17.13-12.79,60.3,60.3,0,0,0,11.39-13.59,26.9,26.9,0,0,0,4.15-13.35,18.22,18.22,0,0,0-4.63-12A27.56,27.56,0,0,0,468,243.7c-1.06-.67-2.28-1.81-3.56-1.39-2.42.81-4.81,1.68-7.21,2.52l-14.4,5L423.2,256.7l-22.89,8-24,8.37-23.14,8.08-20.32,7.1-15.54,5.43-8.61,3-1.12.39C306.71,297.39,307.1,298.84,308,298.52Z"/><path class="cls-4" d="M81.86,222.25a102.9,102.9,0,0,0,20.37-2.74,120.13,120.13,0,0,0,42.26-17.79,97.71,97.71,0,0,0,22.93-21.94c.58-.77-.72-1.52-1.29-.76C155.36,193.4,140.54,204.18,124,211.1a128.32,128.32,0,0,1-35.31,9.14c-2.28.25-4.58.48-6.87.51a.75.75,0,0,0,0,1.5Z"/><polygon class="cls-4" points="81.86 221.5 94.16 224.93 91.69 220.72 81.86 221.5"/><path class="cls-4" d="M81.66,222.22l10.76,3,1.54.43a.75.75,0,0,0,.84-1.1l-2.46-4.21a.73.73,0,0,0-.65-.37l-9.83.78c-1,.07-1,1.57,0,1.5l9.83-.78-.65-.38,2.47,4.22.84-1.1-10.76-3-1.54-.43A.75.75,0,0,0,81.66,222.22Z"/><path class="cls-4" d="M99.3,88.2C90.15,92.35,81.63,98.54,74.05,105c-15.94,13.7-28.38,31.68-33,52.37-6.78,30.33,3.85,61.78,19.79,87.48,14.14,22.82,34.07,42,54.76,58.84a465.85,465.85,0,0,0,84.22,54.09c31.77,16.06,65.3,28.94,99.93,37.27,33.21,8,67.83,11.89,101.92,8.38,29.9-3.08,62.59-11.13,83.72-34,16.33-17.67,22.6-42,19.44-65.55-2.74-20.44-12.16-41.64-28.45-54.86a49.72,49.72,0,0,0-10.93-6.83c-.88-.39-1.64.9-.76,1.29,18.16,8.16,29.86,27.33,35.43,45.73,6.62,21.88,5.38,46.43-6.33,66.41-15.31,26.13-44.33,37.91-72.79,43.45-32.78,6.39-66.77,4.92-99.5-1-34.51-6.21-68.11-17.33-100.07-31.67A487.16,487.16,0,0,1,134,316c-22.84-16.63-44.71-35.54-62.12-57.92a164,164,0,0,1-22.1-38c-5.89-14.23-9.63-29.52-9.36-45,.39-22.81,10.12-43.94,25.64-60.42A119.35,119.35,0,0,1,98.2,90.41c.61-.32,1.22-.63,1.85-.91.88-.4.12-1.7-.75-1.3Z"/><polyline class="cls-4" points="339.24 360.5 319.7 347.49 327.12 347.17"/><path class="cls-4" d="M339.62,359.85l-17.1-11.38-2.44-1.63-.38,1.4,7.42-.32c1,0,1-1.54,0-1.5l-7.42.32a.76.76,0,0,0-.38,1.4l17.1,11.38,2.44,1.63c.8.54,1.56-.76.76-1.3Z"/><path class="cls-4" d="M307.07,297.8a87.15,87.15,0,0,0,3,14.74A110.55,110.55,0,0,0,324.18,344a90.94,90.94,0,0,0,14.53,17c.71.65,1.77-.41,1.06-1.06-16.28-14.84-26.5-35.78-30.46-57.3-.3-1.61-.58-3.24-.74-4.87-.09-.95-1.59-1-1.5,0Z"/><path class="cls-4" d="M310.61,314.78c6,10.24,16.9,16.26,27.91,19.64,14,4.31,29.11,5,43.66,3.92a167.49,167.49,0,0,0,47.53-10.61c14.34-5.51,28.19-13.15,39.35-23.81,10.05-9.61,17.64-21.91,19.58-35.84.24-1.73.4-3.46.48-5.21,0-1-1.46-1-1.5,0-.63,13.85-6.91,26.51-16.25,36.57-10.22,11-23.41,19-37.13,24.85a164.42,164.42,0,0,1-46.39,12c-14.57,1.6-29.63,1.47-43.94-2-11.17-2.69-22.81-7.69-29.91-17.14a33.45,33.45,0,0,1-2.1-3.17.75.75,0,0,0-1.29.75Z"/><path class="cls-4" d="M229.48,311.46c13.35-8.61,26.64-17.3,40-25.95,12.79-8.3,25.6-16.58,38.51-24.69,10.69-6.71,21.45-13.35,32.47-19.5,13.5-7.53,27-15.1,40.85-22,14.41-7.24,29.52-13.86,45.39-17.1,14.78-3,30.95-2.46,44.6,4.47a57.82,57.82,0,0,1,23.92,23.13,68,68,0,0,1,8.38,30.5,79.24,79.24,0,0,1-5.25,31.63,70.87,70.87,0,0,1-17.67,26.45,125.3,125.3,0,0,1-15,11.44c-5.52,3.74-11.16,7.27-16.8,10.81-11.27,7.09-22.61,14.25-32.58,23.11-10.16,9-19.44,20.27-22.86,33.68-3.5,13.74-.89,29,5.9,41.38a54.8,54.8,0,0,0,21.32,21.1,66.21,66.21,0,0,0,29,8.28,62.14,62.14,0,0,0,29.59-5.59,50.47,50.47,0,0,0,22.7-20.89,45,45,0,0,0-12.21-57.19,45.2,45.2,0,0,0-14.42-7.25.75.75,0,0,0-.4,1.45,43.18,43.18,0,0,1,25.36,20.15,43.79,43.79,0,0,1,4.65,30.72,45.52,45.52,0,0,1-17.95,26.7,56.31,56.31,0,0,1-28.13,10.23c-20.16,1.8-41.86-6-54.27-22.4a57.46,57.46,0,0,1-11.07-37.63,49,49,0,0,1,7.1-22.14A81.94,81.94,0,0,1,413,368.82c18.86-18.69,43.74-29.42,64.41-45.77,16.64-13.15,26.21-33.63,27.54-54.63s-6-42.56-22.47-56.14c-10.75-8.85-24.08-13.09-37.93-13.32-15.36-.25-30.35,4.29-44.45,10-15.09,6.15-29.41,14-43.67,21.82C345.32,237,334.17,243,323.29,249.59c-25.59,15.48-50.56,32-75.63,48.3q-9.47,6.15-18.93,12.28c-.81.52-.06,1.82.75,1.29Z"/><path class="cls-4" d="M41.05,194.38c-14.77,9.43-24.19,25.05-28.86,41.67a103.77,103.77,0,0,0-1.14,51.74,107.36,107.36,0,0,0,30.42,52.26c16.26,15.41,37.8,25.59,60.25,27.17,22.9,1.61,45.22-6.15,64.94-17.23,2.48-1.39,4.92-2.84,7.34-4.33.82-.51.07-1.81-.76-1.3-19,11.69-40.26,20.89-62.83,21.54s-44.94-7.76-62.29-22A106.37,106.37,0,0,1,14.4,294.17,101.6,101.6,0,0,1,12,243c3.46-16.57,11.25-32.81,24.62-43.62a55.1,55.1,0,0,1,5.16-3.7c.81-.52.06-1.82-.76-1.3Z"/><path class="cls-7" d="M403.1,402.54c9.68-1.05,15.94-1.72,25.21-4-10.1-10.52-40.09-21.95-40.09-21.95Z"/><path class="cls-3" d="M488,434H239.94c.18,0,2.89-6.88,3.14-7.36,5.42-10.34,15.08-19.24,27-21.61,14-2.8,26.44,3,38.43,9.45l2.45,1.32c-1.23-.67,6-15.25,7-16.92,8.3-14.25,23.58-23.28,39.64-25.86,15-2.41,30.3,2.05,42.57,10.72a64.44,64.44,0,0,1,19.92,22.78,81.48,81.48,0,0,1,5.08,11.13S465.39,390,488,434Z"/><path class="cls-4" d="M488,433.26H243.77a31.94,31.94,0,0,0-3.39,0h-.44l.38,1.39a2.1,2.1,0,0,0,.64-1c.35-.79.68-1.58,1-2.37.58-1.41,1.1-2.86,1.75-4.23a41.68,41.68,0,0,1,10.53-13.32,35.57,35.57,0,0,1,15.63-7.91A40.05,40.05,0,0,1,289.61,407c7.38,2.18,14.21,5.84,20.95,9.48a.75.75,0,0,0,.75-1.3c.52.37.09.36.24.14a1.93,1.93,0,0,0,.08-.48,16,16,0,0,1,.56-1.78c.55-1.51,1.19-3,1.85-4.45,1.28-2.85,2.63-5.67,4.08-8.44,4.41-8.43,11.95-15.2,20.21-19.75a57,57,0,0,1,31.56-7.11,60.69,60.69,0,0,1,32.36,12.94c10.27,8,17.82,19.39,22.18,31.63a.77.77,0,0,0,1.11.45,51.14,51.14,0,0,1,14.53-6.59c10.23-3,21.29-2.57,30.52,3.14,7.45,4.6,12.8,11.85,16.78,19.53.44.85,1.74.09,1.29-.76-3.66-7.07-8.44-13.68-14.9-18.44a35.09,35.09,0,0,0-16.45-6.56c-9.31-1.17-18.81,1.26-27.15,5.35a41.27,41.27,0,0,0-5.38,3l1.1.44C421.8,406,415,395.21,405.8,387.22A63.28,63.28,0,0,0,373,372.12c-21.2-2.83-45.43,7.58-55.93,26.74-1.72,3.14-3.23,6.42-4.67,9.69a47.36,47.36,0,0,0-2,5.14c-.26.84-.72,2.15.17,2.77l.75-1.3c-11.85-6.39-24.66-13-38.57-11.31-12,1.47-22.12,9.16-28.46,19.21a36.67,36.67,0,0,0-2.9,5.73c-.41,1-.82,2-1.24,3-.17.42-.35.85-.54,1.26s-.48.6,0,.31a.76.76,0,0,0,.38,1.4H478c3.2,0,6.41.06,9.61,0h.4A.75.75,0,0,0,488,433.26Z"/><path class="cls-3" d="M316.21,419.76s-5-4.19-8.94-5.87"/><path class="cls-4" d="M316.74,419.23c-1-.84-2.05-1.63-3.11-2.39a32.75,32.75,0,0,0-6-3.6.78.78,0,0,0-1,.27.75.75,0,0,0,.27,1,32.59,32.59,0,0,1,5.89,3.53c1,.73,1.94,1.42,2.9,2.22a.77.77,0,0,0,1.06,0,.76.76,0,0,0,0-1.06Z"/><path class="cls-3" d="M423.17,412.9a41.5,41.5,0,0,1,3.35,10.28"/><path class="cls-4" d="M422.52,413.28a37,37,0,0,1,3.28,10.1c.17.95,1.61.55,1.44-.4a38.33,38.33,0,0,0-3.43-10.46c-.43-.86-1.72-.11-1.29.76Z"/><g class="cls-8"><path class="cls-9" d="M378.22,205c-3.06-2.84-5-6.68-4.42-10.91.41-3.28,2.14-5.27,4.08-7.86-6.92-1.23-5.76-13.11-1.37-15.59a8.08,8.08,0,0,1,3.26-.95c.22,0,1.36-.19,1.53,0l13.36,14.85Z"/><path class="cls-4" d="M378.75,204.47a12.59,12.59,0,0,1-4.29-8.82c0-3.64,2-6.27,4.07-9a.75.75,0,0,0-.45-1.1c-3.5-.7-4.54-4.31-4.35-7.48a11.16,11.16,0,0,1,1.28-4.67,5.71,5.71,0,0,1,4.76-2.92,4.77,4.77,0,0,1,1.19-.08s-.33-.21-.12-.06a4,4,0,0,1,.51.57l2.17,2.41,6.38,7.1,4.23,4.71V184l-14.38,17.89-2.06,2.56c-.6.75.45,1.81,1.06,1.06l14.37-17.88,2.07-2.56a.8.8,0,0,0,0-1.07L383.8,171.35c-.61-.67-1.18-1.42-1.84-2-1-.94-3.34-.31-4.48.08-3.52,1.21-5,4.94-5.23,8.39-.31,3.88,1.19,8.33,5.43,9.17l-.45-1.1C374.89,189,372.78,192,373,196a14.22,14.22,0,0,0,4.72,9.49C378.39,206.2,379.45,205.14,378.75,204.47Z"/><path class="cls-10" d="M377.12,166.78l-5.51,9.12-.8,1.32a.75.75,0,0,0,.27,1l7.14,3.12c.39.17,1,.08,1.1-.45l1.31-7.64c.16-.94-1.29-1.35-1.45-.4l-1.31,7.64,1.1-.45L371.84,177l.27,1,5.51-9.12.79-1.31a.75.75,0,0,0-1.29-.76Z"/><circle class="cls-9" cx="441.27" cy="142.64" r="8.53"/><path class="cls-4" d="M432,142.5a9.28,9.28,0,1,0,7.7-9,9.37,9.37,0,0,0-7.7,9c0,1,1.47,1,1.5,0a7.77,7.77,0,1,1,6.19,7.76,7.86,7.86,0,0,1-6.19-7.76A.75.75,0,0,0,432,142.5Z"/><path class="cls-9" d="M382.88,146.82s-6.38-25.41,21.88-27.69c18.46-1.48,22.49,17.82,22.49,17.82s5.51,1.7,8.76,16.71c1.23,5.64.25,14-3,18.77.3-.44,4.43,2.84,4.89,3.22a14.17,14.17,0,0,1,4.72,13.49,18.9,18.9,0,0,1-3,7.14c-.7,1-3.95,4.45-5.48,4.67,2.86,3.56,4.62,8.33,3.69,12.8-3.14,15.13-26.66,13.23-32.32,12.93Z"/><path class="cls-4" d="M383.6,146.62c-1.52-6.08-.52-13.51,3.3-18.57,4.1-5.41,11-7.56,17.49-8.14,6.87-.6,13.21,1.84,17.44,7.35a25.24,25.24,0,0,1,4.69,9.89.78.78,0,0,0,.53.53c.1,0-.09-.07.19.09a5.43,5.43,0,0,1,.85.56,12.9,12.9,0,0,1,2.89,3.52,33.78,33.78,0,0,1,3.4,8.33,31.18,31.18,0,0,1,1.32,10.73,22.92,22.92,0,0,1-3.36,11.14c-.51.77.57,1.4,1.18.91-.61.48-.47,0-.08.38a3.24,3.24,0,0,0,.54.33c.45.3.89.62,1.33.94.69.5,1.38,1,2,1.57A13.22,13.22,0,0,1,442,185a16.32,16.32,0,0,1-2.85,10.52,15.13,15.13,0,0,1-2.21,2.52c-.83.8-1.88,1.92-3.06,2.16a.76.76,0,0,0-.33,1.26c3.14,4,4.73,9.21,2.92,14.12a13.31,13.31,0,0,1-5.87,6.73c-5.33,3.17-12,3.79-18,3.83-2.38,0-4.74-.1-7.11-.23l.72.55-7.68-27.14-12.14-42.92-2.77-9.8a.75.75,0,0,0-1.45.4l7.68,27.14L402,217.08l2.77,9.8a.78.78,0,0,0,.73.55,71.62,71.62,0,0,0,16.68-.59c6.48-1.17,13.24-4.16,15.74-10.72,2.08-5.47.22-11.27-3.26-15.71l-.33,1.26c2-.42,4-2.65,5.24-4.15a17.78,17.78,0,0,0,3.85-8.55,15.27,15.27,0,0,0-6-14.65c-.93-.72-1.87-1.44-2.86-2.06-.64-.4-1.4-.9-2.09-.36l1.18.91c4-6.05,4.37-14.3,2.68-21.16-1.2-4.87-3-10.7-6.9-14.15a5.75,5.75,0,0,0-2-1.27l.52.52a26.51,26.51,0,0,0-4.1-9.21,20.44,20.44,0,0,0-16.15-9.22c-7-.3-15.15,1.78-20.28,6.85a21.12,21.12,0,0,0-5.83,13.31,26.66,26.66,0,0,0,.54,8.54A.75.75,0,0,0,383.6,146.62Z"/><path class="cls-11" d="M384,185.73l-4.46,11.68,39.24,10.52s-8.29-8.83-10.65-14.55c-2-4.81.86-18.53.86-18.53Z"/><polygon class="cls-12" points="425.24 270.17 429.61 286.17 424.96 286.09 419.81 271.4 425.24 270.17"/><path class="cls-4" d="M424.51,270.37l3.83,14,.55,2,.72-.95-4.65-.08.72.55-4.5-12.83-.65-1.85-.52.92,5.43-1.24c.94-.21.54-1.66-.4-1.44l-5.43,1.23a.76.76,0,0,0-.53.92l4.5,12.83.66,1.86a.78.78,0,0,0,.72.55l4.65.08a.75.75,0,0,0,.72-.95l-3.82-14-.55-2A.75.75,0,0,0,424.51,270.37Z"/><polygon class="cls-13" points="318.1 170.6 327.42 173.27 331.38 187.83 318.1 188.65 315.42 179.91 318.1 170.6"/><path class="cls-13" d="M314.2,175.92c-3-2.53-14.93-11.72-16.13-12-3.83-.77-2.23,6,3.94,14s9.92,12.65,9.92,12.65l11.18.52,13.19.71c0-2.87-4.8-17.27-4.8-17.27l-1.8-4.22c-1.19-2.46-3-4.95-6.27-5.71-2.28-.69-5.23-1.48-5.83-1.12-1,.6,4.35,4.88,4.35,4.88a3.23,3.23,0,0,1,1.16,4.2s-2.67,6.35,1.45,10.3a20,20,0,0,0,2.85,2"/><path class="cls-4" d="M314.73,175.39a167.66,167.66,0,0,0-14.38-10.95c-1.28-.87-3.21-2.14-4.52-.54-1.82,2.22.57,6.5,1.64,8.5,2.46,4.59,5.94,8.62,9.14,12.71q1.62,2.07,3.26,4.12a16,16,0,0,0,1.46,1.81,1.74,1.74,0,0,0,1.32.35l3.65.17c2.25.11,4.51.2,6.76.32,4.42.22,8.83.47,13.24.71a.76.76,0,0,0,.75-.75,23,23,0,0,0-1.15-5.54c-.69-2.54-1.47-5.06-2.26-7.57a77.13,77.13,0,0,0-3.26-8.7,10.58,10.58,0,0,0-6.75-6.12c-1-.29-6.83-2.58-6.9-.17,0,.8.75,1.55,1.24,2.08a30.26,30.26,0,0,0,2.49,2.31c1.36,1.16,2.72,2,2,4.09a13.43,13.43,0,0,0-.81,6.55,9.43,9.43,0,0,0,5.39,6.78c.86.43,1.62-.87.76-1.3a8,8,0,0,1-4.65-5.58,11.34,11.34,0,0,1,.66-5.79,4.15,4.15,0,0,0-1.29-5c-.29-.22,0,0-.11-.07l-.67-.55c-.76-.65-1.51-1.31-2.22-2a9.18,9.18,0,0,1-.95-1c-.06-.08-.23-.42-.3-.45s-.06-.09,0-.09l-.3.52.13,0a9.9,9.9,0,0,0,2,.31c.89.2,1.77.45,2.64.7a8.84,8.84,0,0,1,4.5,2.57,12.65,12.65,0,0,1,1.95,3.15c.39.86.74,1.73,1.11,2.6l.48,1.15c.14.32.08.18.08.17.41,1.21.79,2.42,1.18,3.64.8,2.52,1.59,5.06,2.3,7.61a23.29,23.29,0,0,1,1.27,5.76l.75-.75q-11.73-.63-23.45-1.19a2.47,2.47,0,0,0-.81,0c-.33.15.51.06.42.21l-.11-.13a8,8,0,0,0-1.42-1.77q-3.72-4.68-7.38-9.43c-2.64-3.43-5.56-7.23-6.6-11.53-.15-.64-.54-2.17.28-2.52.6-.26,1.13.24,1.64.56,2.64,1.69,5.13,3.64,7.62,5.54s4.86,3.69,7.18,5.66c.73.63,1.8-.43,1.06-1.06Z"/><path class="cls-13" d="M313.47,179.91S297.76,165.63,295.65,168c-1.83,2.06,13.4,16.86,13.4,16.86"/><path class="cls-4" d="M314,179.38c-1.86-1.69-3.78-3.33-5.72-4.92-3-2.45-6.11-5.13-9.62-6.79-.93-.43-2.27-1-3.25-.42s-.63,1.93-.2,2.81a21.38,21.38,0,0,0,2.81,4.07c1.31,1.63,2.71,3.2,4.14,4.74,2.06,2.23,4.18,4.42,6.36,6.54.69.67,1.76-.39,1.06-1.06-1.62-1.58-3.2-3.2-4.76-4.84a70.39,70.39,0,0,1-7.34-8.56,12.51,12.51,0,0,1-1-1.69,3.26,3.26,0,0,1-.2-.53s0-.31,0-.14c0-.18,0-.11,0-.13s-.06,0,0,0c-.14,0,0,0,.09,0h.16a5.36,5.36,0,0,1,1.32.42c3.24,1.47,6.14,3.93,8.88,6.16,2.13,1.73,4.23,3.51,6.26,5.36.71.65,1.77-.41,1.06-1.06Z"/><path class="cls-13" d="M312.75,184.39l2-11.52c-7.12-4.2-13.07-10.55-15.26-14.39s.66-3.27,2.44-1.51c2.62,2.57,20.56,14.82,20.56,14.82"/><path class="cls-4" d="M313.47,184.59l2-11.52a.77.77,0,0,0-.35-.85,49.37,49.37,0,0,1-12.27-10.36,30.44,30.44,0,0,1-1.91-2.49,7.34,7.34,0,0,1-1.47-2.82c0-.34-.19-.18.11-.17a2.54,2.54,0,0,1,1,.45,11.77,11.77,0,0,1,1.33,1.12c4.71,4.08,10.1,7.5,15.21,11,1.66,1.15,3.33,2.31,5,3.45.8.54,1.55-.76.76-1.3-4.91-3.35-9.8-6.74-14.62-10.23-1.32-1-2.64-1.92-3.92-2.92-.95-.73-1.81-1.65-2.8-2.32s-2.9-1.45-3.48.09,1.18,3.83,2.07,5.05a48.38,48.38,0,0,0,14.25,12.7l-.35-.84-2,11.52c-.16.94,1.29,1.35,1.45.4Z"/><path class="cls-13" d="M312.45,184.1s-13.14-13.9-15.25-11.51c-1.83,2.07,13.85,16.7,13.85,16.7"/><path class="cls-4" d="M313,183.57c-1.73-1.83-3.53-3.6-5.37-5.32-1.45-1.35-2.93-2.67-4.49-3.89a16.26,16.26,0,0,0-4-2.53c-.93-.36-2.31-.46-2.73.7-.34,1,.38,2.13.87,2.91a54.16,54.16,0,0,0,7.21,8.43c2,2,4,4,6.06,5.95.71.66,1.77-.4,1.06-1.06a106.67,106.67,0,0,1-11.92-12.5,11.59,11.59,0,0,1-1.8-2.92c-.1-.28,0-.12-.06-.36,0,.07-.05.08,0,.09s-.14,0,0,0-.1,0,.13,0a1.56,1.56,0,0,1,.5.11,12.2,12.2,0,0,1,3.49,2.14c1.47,1.13,2.86,2.36,4.22,3.62,2,1.83,3.93,3.73,5.79,5.7.67.7,1.73-.36,1.06-1.06Z"/><polyline class="cls-14" points="406.55 384.19 409.03 329.89 412.78 270.17 386.59 257.59 368.7 257.59 354.7 387.02"/><path class="cls-4" d="M407.3,384.19l.91-19.88,1.35-29.75c.18-3.8.4-7.58.64-11.37l1.91-30.43c.47-7.4,1.17-14.82,1.4-22.22,0-.13,0-.25,0-.37a.73.73,0,0,0-.37-.65l-18.24-8.76c-2.58-1.24-5.14-2.65-7.79-3.74a4.52,4.52,0,0,0-1.8-.18H368.7a.77.77,0,0,0-.75.75l-1.4,12.92-3.34,30.91-4,37.36-3.5,32.3-1.15,10.68c-.18,1.65-.52,3.37-.55,5a1.64,1.64,0,0,1,0,.22c-.1,1,1.4,1,1.5,0l1.4-12.92,3.34-30.91,4-37.36,3.49-32.3,1.16-10.67.36-3.31a9.27,9.27,0,0,0,.19-1.74.82.82,0,0,1,0-.22l-.75.75H386a1.68,1.68,0,0,0,.5,0c.23-.09-.06,0-.24-.09,2.1,1.25,4.5,2.16,6.7,3.22l11.93,5.73,7.53,3.62-.37-.65-1.17,18.66-2,31.35c-.26,4.06-.54,8.11-.73,12.17l-1.27,27.92c-.36,7.83-.9,15.68-1.07,23.52,0,.13,0,.26,0,.4,0,1,1.46,1,1.5,0Z"/><polygon class="cls-11" points="412.03 282.15 412.72 271.11 393.84 271.02 412.03 282.15"/><line class="cls-15" x1="380.95" y1="258.08" x2="380" y2="266.4"/><path class="cls-4" d="M380.2,258.08l-.83,7.27-.12,1a.74.74,0,0,0,.75.75.77.77,0,0,0,.75-.75l.83-7.28.12-1a.75.75,0,0,0-.75-.75.77.77,0,0,0-.75.75Z"/><line class="cls-15" x1="368.06" y1="266.56" x2="413.67" y2="269.32"/><path class="cls-4" d="M368.06,267.31l15.34.93L408,269.73l5.65.34c1,.06,1-1.44,0-1.5l-15.34-.93-24.62-1.49-5.65-.34c-1-.06-1,1.44,0,1.5Z"/><path class="cls-16" d="M386.59,192.2s-11.25,23.92-13.13,42.36l-5.18,9.52S339,269,320,234.22a73.57,73.57,0,0,1-7.16-19.09l-5.51-24.31,31.3.55,10.53,43.16,18.29-23S377.93,195.36,386.59,192.2Z"/><polygon class="cls-12" points="386.74 261.05 400.85 285.15 395.24 287.13 379.83 259.63 386.74 261.05"/><path class="cls-4" d="M386.1,261.43l12.35,21.11,1.75,3,.45-1.1-5.61,2,.85.35-13.48-24.06-1.93-3.44-.85,1.1,6.91,1.42c.95.19,1.35-1.25.4-1.45L380,258.91a.76.76,0,0,0-.85,1.1l13.48,24.06,1.93,3.43a.75.75,0,0,0,.85.35l5.61-2a.76.76,0,0,0,.44-1.1l-12.35-21.11-1.75-3A.75.75,0,0,0,386.1,261.43Z"/><path class="cls-12" d="M429.61,286.17l-31.95-.56s-4.37-.43-4.82,8.9.47,34.62,26.42,35.36S442.4,305.7,439,298.81A46.22,46.22,0,0,0,429.61,286.17Z"/><path class="cls-4" d="M429.61,285.42l-28-.49c-2.16,0-4.73-.56-6.52,1-2.45,2.07-2.85,5.9-3,8.88-.09,2-.08,4,0,6,.67,11.44,5.15,23.29,16.54,27.8a31.7,31.7,0,0,0,11.32,2,27.16,27.16,0,0,0,10.67-1.8,17.66,17.66,0,0,0,10.27-11.63,29,29,0,0,0,.24-14.18c-1.35-6.07-5.31-11.48-9.52-15.92-.48-.51-1-1-1.49-1.47-.71-.65-1.78.41-1.06,1.06a37.48,37.48,0,0,1,4.75,5.32,32.84,32.84,0,0,1,5.15,8.8,28.16,28.16,0,0,1,1.23,12.33c-.58,4.87-2.72,9.62-6.82,12.5-5.72,4-13.87,4.21-20.46,2.71a22.63,22.63,0,0,1-14.47-10.17,35.44,35.44,0,0,1-4.64-14.83,57,57,0,0,1-.3-6.4c0-2.83,0-5.95,1.4-8.49s2.88-2.11,5.25-2.06l28.69.49.75,0A.75.75,0,0,0,429.61,285.42Z"/><g class="cls-17"><path class="cls-4" d="M393.18,291.42l11.28.19s-3.23-5.94-5-6-5.35-1.71-5.35-1.71l-2.42,4.9Z"/><path class="cls-4" d="M393.18,292.17l9.86.17,1.42,0a.76.76,0,0,0,.65-1.13,29.87,29.87,0,0,0-2.68-4.11,6.77,6.77,0,0,0-2.15-2,3.82,3.82,0,0,0-1.26-.25,10.51,10.51,0,0,1-1.83-.49,23.73,23.73,0,0,1-2.72-1.09.76.76,0,0,0-1,.27L391.26,288a5.77,5.77,0,0,0-.27.56c-.15.44.09.75.3,1.11l1.25,2.15a.75.75,0,0,0,1.29-.76l-1.51-2.59v.76l2.42-4.9-1,.27a27.42,27.42,0,0,0,3.14,1.26,9.54,9.54,0,0,0,2.35.54c.23,0,.25,0,.43.09a2.35,2.35,0,0,1,.52.37,19.11,19.11,0,0,1,3.65,5.15l.65-1.13-9.86-.17-1.42,0A.75.75,0,0,0,393.18,292.17Z"/></g><path class="cls-4" d="M429.61,285.42l-28-.49c-2.16,0-4.73-.56-6.52,1-2.45,2.07-2.85,5.9-3,8.88-.09,2-.08,4,0,6,.67,11.44,5.15,23.29,16.54,27.8a31.7,31.7,0,0,0,11.32,2,27.16,27.16,0,0,0,10.67-1.8,17.66,17.66,0,0,0,10.27-11.63,29,29,0,0,0,.24-14.18c-1.35-6.07-5.31-11.48-9.52-15.92-.48-.51-1-1-1.49-1.47-.71-.65-1.78.41-1.06,1.06a37.48,37.48,0,0,1,4.75,5.32,32.84,32.84,0,0,1,5.15,8.8,28.16,28.16,0,0,1,1.23,12.33c-.58,4.87-2.72,9.62-6.82,12.5-5.72,4-13.87,4.21-20.46,2.71a22.63,22.63,0,0,1-14.47-10.17,35.44,35.44,0,0,1-4.64-14.83,57,57,0,0,1-.3-6.4c0-2.83,0-5.95,1.4-8.49s2.88-2.11,5.25-2.06l28.69.49.75,0A.75.75,0,0,0,429.61,285.42Z"/><path class="cls-12" d="M400.82,286.44s9.05,16.11,23.37,16.78a7.51,7.51,0,0,0,7.85-6.89c.18-2.46-.39-5.76-2.43-10.16"/><path class="cls-4" d="M400.18,286.81a39.93,39.93,0,0,0,9.51,11.11c5.34,4.33,16.45,9.91,21.66,2.49,3-4.32.86-10.34-1.09-14.62-.4-.88-1.69-.12-1.3.76,1.64,3.58,3.65,8.79,1.45,12.56-2.33,4-7,3.7-10.91,2.54-6.34-1.91-11.58-6.66-15.51-11.85a36,36,0,0,1-2.52-3.74.75.75,0,0,0-1.29.75Z"/><ellipse class="cls-18" cx="421.9" cy="296.33" rx="3.16" ry="3.88" transform="translate(-93.58 286.38) rotate(-33.98)"/><path class="cls-4" d="M418.63,298.48a4.77,4.77,0,0,0,4.47,2.23,3.6,3.6,0,0,0,2.95-3.57,5.35,5.35,0,0,0-2.59-4.59,3.82,3.82,0,0,0-4.65.35c-1.49,1.49-1.26,3.93-.18,5.58a.78.78,0,0,0,1,.27.77.77,0,0,0,.27-1,3.94,3.94,0,0,1-.68-1.88,2.52,2.52,0,0,1,.38-1.58,2.11,2.11,0,0,1,2.64-.64,3.92,3.92,0,0,1,2.25,2.94,3.32,3.32,0,0,1,0,.89,3.08,3.08,0,0,1-.23.75,1.93,1.93,0,0,1-1.06.94,1.91,1.91,0,0,1-.89.11,1.34,1.34,0,0,1-.36-.06l-.48-.15a3.8,3.8,0,0,1-1.57-1.32.77.77,0,0,0-1-.27A.76.76,0,0,0,418.63,298.48Z"/><path class="cls-4" d="M369.67,305.53l3,2.53,2.18,1.86a8.75,8.75,0,0,0,1.51,1.28c.55.27-.17-.14,0-.29,0,0,0,.32,0,.38-.09.51-.1,1.06-.15,1.58l-1.5,15.64-4.36,45.36-1.08,11.23c-.09,1,1.41,1,1.5,0l3-30.68,3.91-40.69c.08-.81.58-2.45.17-3.25-.2-.39-.77-.71-1.09-1l-2.38-2-3.54-3c-.74-.62-1.8.44-1.06,1.06Z"/><path class="cls-13" d="M386.68,143.22c-4.57,5.95-11.67,18.17-8.59,33.79,0,0,2.86,14.15,19.19,8.43a24.94,24.94,0,0,0,12.64-9.65c.12-.18.24-.36.35-.55l10.17-2.81s10.7-11.87,1.15-28.89c0,0-10.19-13-24.37-8.13A22.31,22.31,0,0,0,387,142.84c-.1.12-.19.25-.29.38"/><path class="cls-4" d="M390.87,147.49a8.3,8.3,0,0,1,1.16-.2,16,16,0,0,1,3.24,0,10.91,10.91,0,0,1,7.77,4,15.51,15.51,0,0,1,2.79,7.14c.15,1,1.6.55,1.44-.4-.7-4.31-2.67-8.56-6.65-10.72a14.55,14.55,0,0,0-8.23-1.52,12.54,12.54,0,0,0-1.92.29c-.93.23-.54,1.68.4,1.45Z"/><path class="cls-4" d="M394.56,157.61a13.62,13.62,0,0,0-1.3,5.07,4.67,4.67,0,0,0,1,3.4,4.6,4.6,0,0,0,4.56,1c2.19-.59,3.87-2.53,5.1-4.33.55-.8-.75-1.55-1.3-.76a9.46,9.46,0,0,1-3.59,3.43,3.87,3.87,0,0,1-2.55.24,2.09,2.09,0,0,1-1.14-.64,1.58,1.58,0,0,1-.29-.44.76.76,0,0,1-.09-.18s0,.12,0,0l-.12-.4a2.35,2.35,0,0,1-.09-.58,6.91,6.91,0,0,1,0-.79,6.74,6.74,0,0,1,.19-1.41,12.91,12.91,0,0,1,.37-1.39c.12-.39.26-.78.41-1.16l.07-.19c.07-.17-.08.18,0,0l.06-.12a.78.78,0,0,0-.27-1,.77.77,0,0,0-1,.27Z"/><path class="cls-4" d="M383.58,152.49a13.73,13.73,0,0,0-1.31,5.06,4.76,4.76,0,0,0,1,3.4,4.6,4.6,0,0,0,4.57,1c2.19-.59,3.87-2.53,5.1-4.33.54-.8-.76-1.55-1.3-.76a9.46,9.46,0,0,1-3.59,3.43,3.93,3.93,0,0,1-2.55.25,2.17,2.17,0,0,1-1.14-.65,1.82,1.82,0,0,1-.3-.44l-.09-.18s.05.12,0,0a3.57,3.57,0,0,1-.12-.4,3.29,3.29,0,0,1-.1-.59,6.77,6.77,0,0,1,0-.78,7.47,7.47,0,0,1,.19-1.42c.1-.47.23-.93.37-1.39s.26-.78.42-1.16l.07-.19c.07-.17-.08.19,0,0a1.12,1.12,0,0,0,.05-.13.75.75,0,1,0-1.29-.75Z"/><path class="cls-4" d="M384.29,165.23s6.36,8.76,16.42,6.31c0,0-6,10.4-13.43,8.23S384.29,165.23,384.29,165.23Z"/><path class="cls-4" d="M383.64,165.6a17,17,0,0,0,17.27,6.66l-.85-1.1a21.31,21.31,0,0,1-2.61,3.51,13.29,13.29,0,0,1-6.55,4.46,5.53,5.53,0,0,1-6.37-2.54c-1-2-.91-4.6-.57-6.79a24.71,24.71,0,0,1,1.05-4.38c.33-.91-1.12-1.3-1.44-.39a23.86,23.86,0,0,0-1,4.16,14.12,14.12,0,0,0,.47,7.68,6.74,6.74,0,0,0,6.68,3.94c3.05-.15,5.74-2,7.85-4.05a23.83,23.83,0,0,0,3.82-4.84.76.76,0,0,0-.85-1.1A14.49,14.49,0,0,1,389,168.61,19.43,19.43,0,0,1,386,166c-.28-.3-.56-.61-.83-.93l-.22-.27c.16.2.06.07,0,0C384.38,164.07,383.07,164.82,383.64,165.6Z"/><g class="cls-19"><path class="cls-18" d="M382.74,168.36s4.39,8.82,17.32,7l3.79-5.28L392,162.73l-8.78-3.84Z"/><path class="cls-4" d="M382.09,168.74a13.68,13.68,0,0,0,5.18,5.17,17.33,17.33,0,0,0,7.06,2.29,22.44,22.44,0,0,0,5.05,0,2,2,0,0,0,1.77-1.08l3.35-4.66a.76.76,0,0,0-.27-1L395.54,164c-1-.64-2.06-1.37-3.14-1.94-1.26-.66-2.63-1.15-3.92-1.72l-4.87-2.13a.76.76,0,0,0-1.13.65l-.49,9.47c-.05,1,1.45,1,1.5,0l.49-9.47-1.13.64c2.89,1.27,5.9,2.39,8.72,3.82.87.44,1.69,1,2.52,1.54l5.66,3.5,3.72,2.3-.27-1-3.78,5.28.44-.34c-4.51.62-9.26,0-13-2.76a11.53,11.53,0,0,1-3.47-3.85C383,167.12,381.66,167.88,382.09,168.74Z"/></g><path class="cls-4" d="M383.64,165.6a17,17,0,0,0,17.27,6.66l-.85-1.1a21.31,21.31,0,0,1-2.61,3.51,13.29,13.29,0,0,1-6.55,4.46,5.53,5.53,0,0,1-6.37-2.54c-1-2-.91-4.6-.57-6.79a24.71,24.71,0,0,1,1.05-4.38c.33-.91-1.12-1.3-1.44-.39a23.86,23.86,0,0,0-1,4.16,14.12,14.12,0,0,0,.47,7.68,6.74,6.74,0,0,0,6.68,3.94c3.05-.15,5.74-2,7.85-4.05a23.83,23.83,0,0,0,3.82-4.84.76.76,0,0,0-.85-1.1A14.49,14.49,0,0,1,389,168.61,19.43,19.43,0,0,1,386,166c-.28-.3-.56-.61-.83-.93l-.22-.27c.16.2.06.07,0,0C384.38,164.07,383.07,164.82,383.64,165.6Z"/><path class="cls-4" d="M429.61,285.42l-28-.49c-2.16,0-4.73-.56-6.52,1-2.45,2.07-2.85,5.9-3,8.88-.09,2-.08,4,0,6,.67,11.44,5.15,23.29,16.54,27.8a31.7,31.7,0,0,0,11.32,2,27.16,27.16,0,0,0,10.67-1.8,17.66,17.66,0,0,0,10.27-11.63,29,29,0,0,0,.24-14.18c-1.35-6.07-5.31-11.48-9.52-15.92-.48-.51-1-1-1.49-1.47-.71-.65-1.78.41-1.06,1.06a37.48,37.48,0,0,1,4.75,5.32,32.84,32.84,0,0,1,5.15,8.8,28.16,28.16,0,0,1,1.23,12.33c-.58,4.87-2.72,9.62-6.82,12.5-5.72,4-13.87,4.21-20.46,2.71a22.63,22.63,0,0,1-14.47-10.17,35.44,35.44,0,0,1-4.64-14.83,57,57,0,0,1-.3-6.4c0-2.83,0-5.95,1.4-8.49s2.88-2.11,5.25-2.06l28.69.49.75,0A.75.75,0,0,0,429.61,285.42Z"/><path class="cls-9" d="M415.39,170.89c-8.17-1.48-1-12.94-1-12.94-10.3-4.33-4.62-17.34-4.62-17.34-9.21-2.49-18.51-2-22.79,2.23l7-14.16,28.56,7.64,8.52,40.9Z"/><path class="cls-4" d="M415.59,170.17c-5.88-1.18-2.63-8.51-.57-11.84a.76.76,0,0,0-.26-1c-4.15-1.8-6-5.46-5.79-9.87a19.3,19.3,0,0,1,.79-4.52c.14-.5.31-1,.49-1.49,0-.12.29-.72.16-.43a.76.76,0,0,0-.45-1.1c-7.48-2-18.26-3.29-24.13,3-4.95,5.34-7.81,12.73-8.84,19.86-1.29,8.91-.65,22.78,10.81,24.58,4.14.65,8.45-.5,12.19-2.23a25.61,25.61,0,0,0,10.93-9.52c.52-.82-.78-1.57-1.29-.76-4.11,6.48-12,11.35-19.81,11.19a11.23,11.23,0,0,1-10-6.45,12.8,12.8,0,0,1-1-2.67,37.33,37.33,0,0,1-.7-11,38.17,38.17,0,0,1,7.33-20.27,14.86,14.86,0,0,1,3.13-3.25,14.33,14.33,0,0,1,5.5-2.16c5.1-1,10.49-.27,15.46,1l-.44-1.1a20.67,20.67,0,0,0-1.67,7.66c-.1,4.73,2.13,8.79,6.55,10.71l-.27-1c-2.6,4.19-5.64,12.62,1.46,14.05.95.18,1.35-1.26.4-1.45Z"/><path class="cls-10" d="M417.66,183.41v-5.89a.75.75,0,0,0-1.5,0v5.89a.75.75,0,0,0,1.5,0Z"/><path class="cls-13" d="M408.55,176.91a10.92,10.92,0,0,0,3.95,3.71,6.73,6.73,0,1,0-.74-11.9s-2.23,1.85-2.59,3.21"/><path class="cls-4" d="M407.9,176.84c1.33,1.9,2.91,4.12,5.23,4.82A7.48,7.48,0,0,0,418,167.52a7.42,7.42,0,0,0-5.27-.08,7.82,7.82,0,0,0-3.25,2.41c-.61.74.44,1.81,1.06,1.06a6.93,6.93,0,0,1,2.09-1.8,5.94,5.94,0,0,1,3.91-.48,6,6,0,0,1-2.4,11.73,4.86,4.86,0,0,1-2.72-1.57,21.18,21.18,0,0,1-2.2-2.71c-.55-.79-1.85,0-1.3.76Z"/><path class="cls-4" d="M417.83,172.36l-4.95.36-.71.06a.75.75,0,0,0,0,1.5l4.95-.37.71,0a.77.77,0,0,0,.75-.75.75.75,0,0,0-.75-.75Z"/><path class="cls-16" d="M377.25,201.59s6.52-10.34,14-10.34,21,10.34,21,10.34,11.52,10.25,16.61,17.89l-9.05,40.15-58.13-2S370.31,209.17,377.25,201.59Z"/><path class="cls-4" d="M387.58,199.64,384,219.21l-5.76,31-1.32,7.13c-.17.94,1.27,1.35,1.45.4L382,238.21l5.75-31.05L389,200c.17-.94-1.28-1.34-1.45-.39Z"/><path class="cls-4" d="M374.39,215.12A136.35,136.35,0,0,0,364.1,243.6a108.81,108.81,0,0,0-2.53,14,.76.76,0,0,0,.75.75l20.06.61,2.87.09c1,0,1-1.47,0-1.5l-20.06-.61-2.87-.09.75.75c1.5-13.44,5.74-26.68,11.32-39,.42-.93.84-1.85,1.29-2.75s-.86-1.62-1.29-.76Z"/><path class="cls-16" d="M396,192.36c11.58,4.77,20.58,12.08,28.6,21.6,10.61,12.59,18.29,28.77,14.9,41.39-5.13,19.1-27.77,16.24-27.77,16.24l-18.46-.51c-1.41-19.57,0-27.38,1.6-75.43l1.13-3.29Z"/><polygon class="cls-12" points="409.45 222.55 416.38 239.59 410.52 239.49 409.45 222.55"/><path class="cls-4" d="M408.73,222.75l6,14.89.87,2.15.73-.95-5.86-.11.75.75-.93-14.83-.14-2.1c-.06-1-1.56-1-1.5,0l.94,14.84.13,2.09a.76.76,0,0,0,.75.75l5.86.11a.76.76,0,0,0,.72-1l-6.05-14.89-.87-2.15C409.82,221.46,408.37,221.85,408.73,222.75Z"/><path class="cls-4" d="M423.94,239l-26.37-.46-3.77-.07a.77.77,0,0,0-.75.75l-.48,28-.07,3.91a.76.76,0,0,0,.75.75l18.46.51a.75.75,0,0,0,0-1.5l-18.46-.51.75.75.48-28,.07-3.91-.75.75,26.37.46,3.77.07a.75.75,0,0,0,0-1.5Z"/><path class="cls-13" d="M393.63,192.15l.83.13-6.24,7.78-2.82-6.79,1.28-.46A13.82,13.82,0,0,1,393.63,192.15Z"/><line class="cls-15" x1="374.27" y1="258.08" x2="373.31" y2="266.4"/><path class="cls-4" d="M373.52,258.08l-.84,7.27-.12,1a.75.75,0,0,0,1.5,0l.84-7.28.12-1a.75.75,0,1,0-1.5,0Z"/><circle class="cls-18" cx="398.5" cy="265.5" r="1.8"/><path class="cls-4" d="M399.56,265.5c0,.05,0,.1,0,.15s0,0,0,0-.05.2-.06.23-.05.13-.05.14.09-.17,0-.05-.09.16-.14.24.09-.08,0,0l-.08.09-.06.06,0,0,0,0s-.17.11-.19.13l-.09,0c-.12.07.16-.05,0,0l-.24.06c-.15,0,0,0,0,0h-.37c-.11,0,.19,0,0,0l-.14,0-.14,0c-.11,0,0,0,.05,0l-.21-.11-.1-.07c-.09-.05.14.13,0,0l-.19-.21s.09.14,0,0l-.08-.11,0-.09,0,0c0-.07,0-.06,0,.05s-.07-.2-.07-.23a.29.29,0,0,1,0-.09c0-.15,0,.17,0,0v-.23c0-.08.06-.16,0,0,0,0,0-.06,0-.09a1.55,1.55,0,0,1,.06-.23c.05-.16-.08.14,0,0a.75.75,0,0,0,.07-.12.36.36,0,0,1,.07-.1c.07-.13,0,0,0,0l.16-.17,0,0c.05,0,.05,0,0,0l0,0,.08-.05.25-.14s-.18.06-.05,0l.14,0,.09,0s.17,0,0,0h.3c.16,0-.14,0,0,0l.28.08c.15.05-.11-.07,0,0l.15.08.08,0,.07.05c-.08-.07-.1-.08,0,0l.17.16c.11.12-.09-.14,0,0a1.27,1.27,0,0,1,.07.12.75.75,0,0,1,.07.12c.07.13-.05-.15,0,0a2.76,2.76,0,0,1,.08.27c0,.12,0,0,0-.05a1.41,1.41,0,0,0,0,.2.76.76,0,0,0,.75.75.77.77,0,0,0,.75-.75,2.63,2.63,0,0,0-1.71-2.41,2.55,2.55,0,1,0,1.71,2.41.75.75,0,0,0-1.5,0Z"/><circle class="cls-18" cx="313.97" cy="195.5" r="1.8"/><path class="cls-4" d="M315,195.5v.15c0,.14,0-.05,0-.05s0,.2-.06.23-.05.13-.05.14.09-.17,0-.05-.09.16-.15.24.1-.08,0,0a.73.73,0,0,0-.08.09l-.07.06,0,0c-.06.05-.05.05,0,0s-.17.11-.2.12l-.08.05c-.12.07.16-.05,0,0l-.23.06c-.15,0,0,0,0,0h-.37c-.11,0,.19,0,0,0l-.14,0-.13,0c-.11,0,0,0,0,0a1.8,1.8,0,0,0-.2-.11l-.1-.07c-.09-.05.13.12,0,0s-.19-.2-.19-.2.09.14,0,0a.83.83,0,0,1-.08-.12A.56.56,0,0,1,313,196l0,0c0-.07,0-.06,0,.05s-.07-.2-.07-.23l0-.09c0-.15,0,.17,0,0v-.22c0-.08.06-.17,0,0a.31.31,0,0,0,0-.09c0-.08.05-.16.07-.24s-.08.15,0,0a.83.83,0,0,0,.07-.13l.06-.1c.08-.12,0,0,0,0s.14-.16.16-.17l0,0h0l0,0,.08,0s.24-.13.24-.14-.18.06,0,0l.13,0,.1,0s.16,0,0,0h.3c.16,0-.15,0,0,0l.28.08c.15.05-.11-.07,0,0l.15.08.08.05.07,0,0,0,.17.17c.11.12-.09-.14,0,0a.76.76,0,0,1,.08.11.83.83,0,0,1,.07.13c.07.12-.05-.15,0,0s.05.19.08.28,0,0,0,0a1.48,1.48,0,0,0,0,.2.75.75,0,0,0,1.5,0,2.59,2.59,0,0,0-1.7-2.41,2.56,2.56,0,0,0-2.78.74,2.55,2.55,0,1,0,4.48,1.67.75.75,0,0,0-.75-.75A.77.77,0,0,0,315,195.5Z"/><g class="cls-20"><path class="cls-21" d="M410,196.94l-.15,13.74,0,2a.76.76,0,0,0,1.13.65l12-6.74,1.73-1a.77.77,0,0,0,0-1.3l-11.83-7-1.7-1a.75.75,0,0,0-.76,1.29l11.83,7,1.7,1v-1.3l-12,6.75-1.72,1,1.12.64.15-13.74,0-2A.75.75,0,0,0,410,196.94Z"/><path class="cls-21" d="M437.61,219.39l-11.55,7.45-1.66,1.07a.75.75,0,0,0,0,1.29l12.22,6.28,1.76.91a.76.76,0,0,0,1.13-.65L438.84,222l-.1-2c0-1-1.54-1-1.5,0l.67,13.72.1,2,1.13-.65-12.22-6.28-1.76-.9v1.29l11.55-7.44,1.66-1.07C439.18,220.17,438.43,218.87,437.61,219.39Z"/><path class="cls-21" d="M430.06,256.32,428.69,270l-.2,2c-.06.63.67.86,1.13.65L442.15,267l1.8-.81c.56-.25.4-1,0-1.29l-11.15-8-1.61-1.16c-.78-.56-1.53.74-.76,1.3l11.16,8,1.6,1.15v-1.29l-12.52,5.64-1.81.81L430,272l1.37-13.67.2-2C431.66,255.36,430.16,255.37,430.06,256.32Z"/><path class="cls-21" d="M407,242.09l-6.45,9.28-.93,1.34c-.36.5.13,1.08.64,1.12l11.27,1,1.62.13c.62.06.87-.66.65-1.12L409,243.56l-.69-1.47c-.41-.87-1.71-.11-1.3.76l4.81,10.23.69,1.47.65-1.13-11.26-.95-1.63-.14.65,1.13,6.46-9.28.93-1.33C408.87,242.05,407.57,241.3,407,242.09Z"/><path class="cls-21" d="M377.85,228.37,370,239.65l-1.13,1.63c-.35.5.14,1.08.65,1.12l13.69,1.16,2,.17c.62.05.87-.66.65-1.13L380,230.16l-.84-1.79c-.41-.87-1.71-.11-1.3.76l5.84,12.44.85,1.79.64-1.13-13.69-1.16-2-.17.65,1.13L378,230.75l1.13-1.62C379.7,228.34,378.4,227.59,377.85,228.37Z"/><path class="cls-21" d="M356.74,244.34l-11.48,7.56L343.61,253a.76.76,0,0,0,0,1.3l12.28,6.16,1.77.89a.75.75,0,0,0,1.12-.65L358,247l-.12-2c-.05-1-1.55-1-1.5,0l.81,13.72.11,2,1.13-.65-12.28-6.16-1.77-.89v1.3l11.48-7.56,1.65-1.08C358.3,245.11,357.54,243.81,356.74,244.34Z"/><path class="cls-21" d="M329.21,227.32l-11.48,7.55L316.08,236a.76.76,0,0,0,0,1.3l12.28,6.16,1.77.88a.75.75,0,0,0,1.13-.64l-.8-13.72-.12-2c-.06-1-1.56-1-1.5,0l.8,13.71.12,2,1.13-.65-12.28-6.16-1.77-.89v1.3l11.48-7.56,1.65-1.09C330.77,228.08,330,226.79,329.21,227.32Z"/><path class="cls-21" d="M329.37,188l-11.48,7.56-1.65,1.08a.76.76,0,0,0,0,1.3l12.28,6.16,1.77.89a.76.76,0,0,0,1.13-.65l-.8-13.72-.12-2c-.06-1-1.56-1-1.5,0l.8,13.72.12,2,1.13-.65-12.28-6.16-1.77-.89V198l11.48-7.56,1.65-1.08C330.93,188.79,330.18,187.49,329.37,188Z"/><path class="cls-21" d="M348,209.82l-11.47,7.55-1.65,1.09a.76.76,0,0,0,0,1.3l12.28,6.16,1.76.88a.75.75,0,0,0,1.13-.64l-.8-13.72-.12-2c-.05-1-1.55-1-1.5,0l.81,13.71.11,2,1.13-.65-12.28-6.16-1.77-.89v1.3l11.48-7.56,1.65-1.09C349.55,210.58,348.79,209.28,348,209.82Z"/><path class="cls-21" d="M357.1,209.52,355,223.12l-.3,1.93c-.08.5.33,1.15.92.92L368.42,221l1.83-.7c.46-.18.81-.86.33-1.25l-10.71-8.65-1.52-1.23c-.74-.6-1.81.45-1.06,1.06L368,218.9l1.52,1.23.33-1.26L357,223.82l-1.82.7.92.93,2.14-13.6.3-1.93C358.69,209,357.25,208.57,357.1,209.52Z"/><path class="cls-21" d="M375.14,191.75l-8.69,10.67-1.24,1.52c-.31.38-.28,1.15.34,1.25l13.58,2.19,1.93.31c.5.08,1.15-.33.93-.93l-4.91-12.86-.69-1.82c-.34-.9-1.79-.51-1.45.39l4.9,12.87.7,1.82.92-.92-13.59-2.19-1.93-.31.34,1.26L375,194.32l1.24-1.51C376.8,192.06,375.74,191,375.14,191.75Z"/></g><polygon class="cls-12" points="408.17 198.9 384.14 239.03 378.59 237.83 403.08 195.77 408.17 198.9"/><path class="cls-4" d="M407.52,198.52l-8.1,13.53-12.93,21.6-3,5,.84-.35-5.55-1.19.45,1.1L387.52,224l13.19-22.65,3-5.18-1,.27,5.09,3.12c.83.51,1.58-.79.76-1.29l-5.1-3.12a.75.75,0,0,0-1,.26l-8.28,14.23L381,232.27l-3,5.18a.76.76,0,0,0,.45,1.1l5.56,1.2a.78.78,0,0,0,.84-.34l8.1-13.54,12.94-21.6,3-5A.75.75,0,0,0,407.52,198.52Z"/><path class="cls-13" d="M393.8,239.19s-3.52-5.26-6.67-5.14l-2.33,3.88s-8.94-1.67-11.13,1.6,2.12,3.24,2.12,3.24-3.1,14,4,16.86a28.69,28.69,0,0,0,13.58,1.92Z"/><path class="cls-4" d="M394.45,238.82c-1.44-2.14-3.55-4.65-6.12-5.37-1.4-.38-1.77.08-2.42,1.16l-1.75,2.94.84-.35c-3.2-.59-7.26-1-10.26.49-1.47.72-3.19,2.83-2.15,4.51a3.76,3.76,0,0,0,3.2,1.32l-.72-1a28.65,28.65,0,0,0-.48,10,11,11,0,0,0,2.54,6.12c2.24,2.39,6.25,3.05,9.33,3.48a25.57,25.57,0,0,0,7.15.13.75.75,0,0,0,.55-.73L394.5,242l.05-2.83a.75.75,0,0,0-1.5,0l-.34,19.54,0,2.82.55-.72-.27,0-1.09.07a27.15,27.15,0,0,1-3.72-.09,28.5,28.5,0,0,1-5.41-1A10.56,10.56,0,0,1,378.6,258c-3.1-2.72-2.94-8-2.58-11.75a28.06,28.06,0,0,1,.49-3.29.75.75,0,0,0-.72-.95c-.6,0-1.77-.09-2-.76s.62-1.6,1.12-1.95a5.59,5.59,0,0,1,2.21-.83,20.57,20.57,0,0,1,7.46.17.77.77,0,0,0,.85-.35l2.32-3.87-.64.37c2.5,0,4.74,2.87,6,4.77C393.69,240.37,395,239.62,394.45,238.82Z"/><path class="cls-4" d="M375.79,243.52l1.58,0h.23a.75.75,0,0,0,0-1.5L376,242h-.23a.76.76,0,0,0-.75.75.77.77,0,0,0,.75.75Z"/><path class="cls-4" d="M384.8,238.68l1.6,0h.23a.75.75,0,0,0,0-1.5l-1.6,0h-.23a.75.75,0,0,0,0,1.5Z"/><path class="cls-4" d="M394,191.22c-1,1.12-2,2.28-2.9,3.46-.76,1-1.5,1.95-2.17,3a9.24,9.24,0,0,0-1.28,2.5,4.21,4.21,0,0,0,3.52,5.28c3.06.26,5.21-2.52,6.56-4.88a27.07,27.07,0,0,0,2.63-6.46.79.79,0,0,0-.53-.93l-5.1-2.13a.75.75,0,1,0-.4,1.44l5.1,2.14-.52-.92a25.86,25.86,0,0,1-1.69,4.57c-1,2.15-2.55,5.13-5.13,5.63a2.5,2.5,0,0,1-2.4-.75,2.82,2.82,0,0,1-.59-1.33,3.5,3.5,0,0,1,0-.79c0-.08,0-.41,0-.32s0-.11,0-.15a8.54,8.54,0,0,1,1.09-2.09c.58-.89,1.21-1.74,1.86-2.57,1-1.23,2-2.44,3-3.61C395.69,191.56,394.63,190.5,394,191.22Z"/><path class="cls-4" d="M384.92,193.12c.49,1,.93,2,1.32,3,.48,1.23,1.26,3,.91,4.31s-1.61,4.33-3.49,3.57c-1.13-.45-1.85-2.1-2.31-3.17a20.45,20.45,0,0,1-1.06-3.24l-.07.58c.11-.15-.12.14,0,0l.29-.35c.35-.4.72-.79,1.1-1.16a21.31,21.31,0,0,1,4.32-3.24.75.75,0,0,0-.76-1.3,24.2,24.2,0,0,0-4.37,3.23,12.1,12.1,0,0,0-1.84,2c-.28.45,0,1,.1,1.49a23.56,23.56,0,0,0,1.06,2.91c.86,2,2.41,4.43,4.93,3.73a5,5,0,0,0,3-3.15,6.84,6.84,0,0,0,.67-2.11,5.53,5.53,0,0,0-.13-1.57,23.66,23.66,0,0,0-2.36-6.27C385.77,191.5,384.48,192.26,384.92,193.12Z"/><path class="cls-4" d="M412.57,272.34c7.9,1,17.2-1.2,22.92-6.9,5.28-5.25,7.05-13,6.18-20.2-1.12-9.3-5.6-18-10.93-25.62a82.51,82.51,0,0,0-19.88-20.1,86.72,86.72,0,0,0-12.33-7.18c-3.7-1.78-7.66-2.51-11.61-1.07a14.11,14.11,0,0,0-3.65,2.07,51.62,51.62,0,0,0-5,4.49c-4.23,4.25-8.14,8.84-12,13.46q-9.07,11-17.53,22.45l-.3.41,1.38.18-3.55-14.54-5.67-23.23-1.32-5.39a.74.74,0,0,0-.72-.55l-27.4-.48-3.9-.07a.76.76,0,0,0-.72,1l3.57,15.76c1.64,7.21,3.13,14.41,6,21.27,4,9.52,10.29,19.87,20.07,24.36a24.34,24.34,0,0,0,18.66.46,30.5,30.5,0,0,0,9.62-5.53c.72-.64-.34-1.7-1.06-1.06-6.4,5.67-16.47,8.49-24.79,5.51-9.67-3.46-16-13.13-20.1-22-3.22-6.91-4.89-14.21-6.56-21.59l-4-17.57-.72.95,27.4.48,3.9.07-.72-.55,3.55,14.54,5.66,23.23,1.32,5.39a.76.76,0,0,0,1.37.18c4.47-6.09,9.11-12.07,13.84-17.95,3.77-4.7,7.62-9.35,11.68-13.81,3-3.28,6.1-6.85,9.83-9.33a10.54,10.54,0,0,1,4.45-1.69c4.9-.79,9.32,1.92,13.43,4.23a79.22,79.22,0,0,1,21.07,17.19c6.18,7.12,11.55,15.39,14.43,24.43,2.39,7.48,2.92,15.93-1.32,22.88-4.91,8.05-15.13,10.77-24.06,10-.19,0-.39,0-.58-.06-1-.11-.95,1.39,0,1.5Z"/><path class="cls-4" d="M341.1,200.48l-27.25-.26-3.83,0a.75.75,0,0,0,0,1.5l27.25.26,3.83,0a.75.75,0,0,0,0-1.5Z"/><path class="cls-4" d="M403.55,239.38l-.48,27.84-.07,3.93a.75.75,0,0,0,1.5,0l.48-27.84.07-3.93a.75.75,0,0,0-1.5,0Z"/><path class="cls-10" d="M412.73,177.06l-2.82,10.38-.41,1.5a.77.77,0,0,0,.52.92l6.69,2.07a.76.76,0,0,0,1-.73v-7.79a.75.75,0,0,0-1.5,0v7.79l.94-.72-6.68-2.07.53.92L413.77,179l.41-1.49a.75.75,0,0,0-1.45-.4Z"/></g><g class="cls-22"><path class="cls-4" d="M261.89,62.29a25.76,25.76,0,0,0,.6,10.94.75.75,0,0,0,1.45-.39,24,24,0,0,1-.6-10.16c.17-.94-1.27-1.34-1.45-.39Z"/><path class="cls-15" d="M267.16,58.2c-1.9.23-1.9,8.22-7.39,10-4,1.32-5.77-1.92-4.22-5.5A13.51,13.51,0,0,1,263.11,56c2.05-.72,2.22-2.41.07-3.28-2.36-1-4.94,0-6.74,1.67-1.61,1.45-2.44,3.38-3.78,5-.54-1.27-3.67-15-5.28-15.86-2.88-1.57,1.15,14.65,1.15,14.65s-4.38-16-7.07-15.8,1.39,11.31,3.2,16.45c-1.36-3.27-5.5-13.72-7.16-12.81s5.3,21.51,5.3,21.51l-27.43,49.22-13.55-10.53s-23.43,20.45-17.06,24.22c7.29,4.32,20.7,14.32,34.13,10.43,20.28-5.87,23.05-25.76,35.31-56.82,2.12-5.36,11.53-12.25,13.87-17.67a10,10,0,0,0,.88-6.07C268.77,59.53,268.23,58.07,267.16,58.2Z"/><path class="cls-4" d="M267,57.47c-1.8.35-2.34,3.7-2.92,5.07a10.53,10.53,0,0,1-2.35,3.69c-1.15,1.09-3.32,2.16-4.85,1.26s-1.14-3.33-.48-4.71a12.17,12.17,0,0,1,4.75-5c1.34-.8,3.73-1.15,4.27-2.84s-1.08-2.67-2.37-3.08a7.14,7.14,0,0,0-6.2,1.28c-2.09,1.49-3.12,3.77-4.68,5.73l1.26.33a67.09,67.09,0,0,1-2-7.16c-.75-2.69-1.38-5.76-2.81-8.2-1-1.66-2.7-1.32-2.94.6-.31,2.45.32,5.13.77,7.52q.6,3.24,1.39,6.43l1.44-.4a74.56,74.56,0,0,0-4.48-12.76c-.58-1.22-1.81-4-3.61-3.55-2.19.55-1.11,4.47-.8,5.87A96.67,96.67,0,0,0,243.94,59l1.44-.4c-1.67-4-3.13-8.55-5.77-12.06-.59-.78-2-2.14-2.87-.82-.53.85-.15,2.28,0,3.17a96.38,96.38,0,0,0,3.15,11.92q.78,2.58,1.61,5.13A11.8,11.8,0,0,0,242,67.4c.31.66-.16-.14.17-.21-.17,0-.55,1-.63,1.13L240,71l-4.82,8.64-12.55,22.52-5.14,9.23-1.74,3.11a10.08,10.08,0,0,0-.92,1.67c0,.08-.09.15-.13.23l1.18-.16L202.35,105.7a.78.78,0,0,0-1.06,0,100,100,0,0,0-15.19,15.87c-1.5,2.05-4.51,6.05-2.64,8.69a6.3,6.3,0,0,0,2,1.52c1.34.82,2.67,1.67,4,2.49a77.73,77.73,0,0,0,9.79,5.2c7.1,3,14.64,4.09,22,1.4a29.9,29.9,0,0,0,12.52-8.66,55.63,55.63,0,0,0,8.41-14.38c2.79-6.48,5.09-13.16,7.49-19.79,1.47-4.05,3-8.1,4.52-12.12a25.93,25.93,0,0,1,5.61-8.33c2.34-2.53,4.84-5,6.93-7.72s3.79-6.49,2.81-10c-.35-1.21-1.06-2.43-2.46-2.44a.75.75,0,0,0,0,1.5c.85,0,1.12,1.65,1.19,2.25a8.72,8.72,0,0,1-.46,3.54,14.1,14.1,0,0,1-2.1,4,84,84,0,0,1-6.61,7.39c-2,2.14-4.19,4.4-5.43,7.08-1.62,3.49-2.82,7.24-4.15,10.85-2.39,6.51-4.63,13.08-7.2,19.53a72.54,72.54,0,0,1-7.55,14.88A29.63,29.63,0,0,1,224.26,138a27.54,27.54,0,0,1-8.16,2.77,26.32,26.32,0,0,1-11.46-.94c-6.58-1.91-12.36-5.61-18.14-9.17-1.18-.73-2.28-1.11-2.05-2.67a11.1,11.1,0,0,1,2-4.26,65.89,65.89,0,0,1,8.61-10c2.24-2.26,4.72-4.3,6.93-6.57a4,4,0,0,1,.37-.33h-1.06l13.55,10.54a.76.76,0,0,0,1.17-.16l6.06-10.87L234.15,84.6,242.86,69a7.07,7.07,0,0,0,.58-1c.23-.6-.13-1.24-.32-1.83-1.14-3.48-2.23-7-3.22-10.51-.53-1.89-1-3.78-1.45-5.69-.15-.72-.3-1.44-.38-2.16a10.83,10.83,0,0,1,0-1.24c.09,0-.34.23-.34.23s.52.51.61.61a16.85,16.85,0,0,1,1.54,2.54c1.13,2.15,2.09,4.39,3,6.62L243.94,59c.35.86,1.77.53,1.44-.4-1-2.89-2-5.79-2.87-8.74a37.11,37.11,0,0,1-1-4.29c-.05-.37-.43-2.25.05-2.49s2.07,3.14,2.26,3.57a68,68,0,0,1,2.65,7.19c.47,1.49.93,3,1.35,4.51a.75.75,0,0,0,1.44-.4,66.33,66.33,0,0,1-2.12-11.67,12,12,0,0,1,0-1.34c0-.18.17-.77.14-.86s-.28.15-.27,0c0,.13.45.68.53.83A42.57,42.57,0,0,1,250,52.57a65.29,65.29,0,0,0,1.95,7c.19.46.86.83,1.26.33,1.33-1.68,2.27-3.72,3.92-5.14a7,7,0,0,1,3.05-1.57c1-.22,3-.24,3.62.76s-1.11,1.37-1.74,1.64a14.24,14.24,0,0,0-2.83,1.63,13.58,13.58,0,0,0-4,4.44c-1.27,2.39-1.65,6.43,1.6,7.42,3,.92,5.95-1.33,7.43-3.7a21.21,21.21,0,0,0,1.83-4c.2-.53.6-2.33,1.27-2.46C268.31,58.74,267.91,57.29,267,57.47Z"/><polyline class="cls-23" points="196.31 107.76 199.85 104.6 173.46 84.97 161.78 115.09 182.64 128.74 196.31 107.76"/><path class="cls-4" d="M196.84,108.29l3.54-3.16a.76.76,0,0,0-.15-1.17L177.17,86.8l-3.33-2.48c-.42-.32-.94.05-1.1.45l-10.22,26.34-1.46,3.79a.74.74,0,0,0,.34.84l18.28,12,2.58,1.69a.77.77,0,0,0,1-.27l12-18.34,1.72-2.64c.53-.81-.77-1.56-1.29-.75l-12,18.33L182,128.36l1-.27-18.28-12-2.58-1.69.34.84L172.72,89l1.47-3.78-1.11.45,23.06,17.15,3.33,2.48-.15-1.18-3.54,3.16c-.72.65.35,1.71,1.06,1.06Z"/><path class="cls-10" d="M201.82,106.23a59.45,59.45,0,0,0-6-4.68s-15.48,14-13.13,27.19c0,.15,2.6,1.72,6.3,4.16C186.82,120.86,199.74,108.13,201.82,106.23Z"/><path class="cls-4" d="M202.35,105.7a72.17,72.17,0,0,0-6.2-4.8.76.76,0,0,0-.91.12,52.06,52.06,0,0,0-7.31,8.44c-3.62,5.11-6.78,11.42-6.22,17.86a3.73,3.73,0,0,0,.43,2,4.32,4.32,0,0,0,1,.68c1.81,1.2,3.65,2.36,5.47,3.56.6.39,1.2-.26,1.1-.85-1-6,1.72-11.94,5-16.83a50.14,50.14,0,0,1,7.72-9.11c.71-.65-.35-1.71-1.06-1.06a51.2,51.2,0,0,0-8.31,10c-3.31,5.14-5.79,11.23-4.77,17.44l1.11-.85c-1.55-1-3.1-2-4.65-3a6.46,6.46,0,0,1-1.27-.83c-.08-.09-.16-.2-.14-.15a6,6,0,0,1-.08-1.24,20.47,20.47,0,0,1,1.64-8.93,44.75,44.75,0,0,1,9-13.46c.81-.87,1.64-1.74,2.52-2.54l-.91.12a68.21,68.21,0,0,1,5.9,4.56C202,107.37,203.1,106.31,202.35,105.7Z"/><line class="cls-15" x1="221.48" y1="105.74" x2="212.63" y2="122.93"/><path class="cls-4" d="M220.84,105.36l-7.77,15.08L212,122.55c-.44.86.86,1.62,1.3.76L221,108.23l1.09-2.11c.44-.86-.85-1.62-1.29-.76Z"/><path class="cls-4" d="M263.11,75.35a23,23,0,0,0,.93,2.43.72.72,0,0,0,.45.35.71.71,0,0,0,.57-.08.73.73,0,0,0,.35-.44.83.83,0,0,0-.08-.58l-.11-.26.08.18c-.28-.65-.52-1.32-.74-2a.87.87,0,0,0-.35-.45.78.78,0,0,0-.58-.07.76.76,0,0,0-.52.92Z"/><path class="cls-4" d="M262.49,73.23c.18.72.39,1.42.62,2.12a.81.81,0,0,0,.34.45.79.79,0,0,0,.58.07.76.76,0,0,0,.53-.92c-.23-.7-.44-1.4-.62-2.11a.75.75,0,1,0-1.45.39Z"/><path class="cls-4" d="M279.51,63.55a30.33,30.33,0,0,0-4-6.52c-2.07-2.56-5.51-5.34-8.84-3.16-2.73,1.79-4.17,5.36-4.77,8.42-.18.94,1.26,1.34,1.45.39.61-3.12,3.21-9.86,7.6-7.68,2.77,1.37,4.65,4.44,6.11,7,.42.74.82,1.49,1.17,2.27s1.69.11,1.29-.76Z"/><path class="cls-4" d="M287.67,61.21a32,32,0,0,0-2.39-4.28c-1.44-2.19-3.24-4.59-5.7-5.69-2.78-1.25-5.26.17-6.93,2.47-2.73,3.76-3.31,8.66-2.76,13.17a29.65,29.65,0,0,0,2.3,8.57c.4.88,1.7.11,1.3-.76a29.54,29.54,0,0,1-1.85-6.24c-.77-4.11-.69-8.63,1.32-12.4,1.17-2.19,3.19-4.67,5.93-3.49,2.18.94,3.79,3.14,5.05,5.06A31.37,31.37,0,0,1,286.37,62c.4.88,1.7.12,1.3-.76Z"/><polygon class="cls-16" points="282.85 60.19 258.78 82.97 275.79 124.87 300.55 99.39 282.85 60.19"/><path class="cls-4" d="M282.32,59.66,261.26,79.59l-3,2.85a.72.72,0,0,0-.19.73l5.73,14.13L273,119.85l2.11,5.22a.77.77,0,0,0,1.26.33L298,103.07l3.06-3.15a.79.79,0,0,0,.12-.91l-6-13.23-9.53-21.11-2.2-4.86c-.39-.88-1.69-.11-1.29.76l6,13.23,9.54,21.11,2.19,4.86.12-.91-21.71,22.33-3.05,3.15,1.25.33-5.74-14.13L261.62,88l-2.12-5.22-.19.73,21.06-19.93,3-2.85C284.08,60.06,283,59,282.32,59.66Z"/><polygon class="cls-16" points="291.21 57.06 318.41 94 300.55 99.39 282.85 60.19 291.21 57.06"/><path class="cls-4" d="M290.57,57.44l9.16,12.44,14.64,19.89,3.4,4.61.44-1.1-17.86,5.39.85.34-6-13.23-9.53-21.11-2.2-4.86-.45,1.1,8.37-3.13c.9-.33.51-1.79-.4-1.45l-8.36,3.14a.76.76,0,0,0-.45,1.1l6,13.23,9.54,21.11,2.19,4.86a.75.75,0,0,0,.85.34l17.86-5.38a.76.76,0,0,0,.45-1.11L309.9,81.18,295.26,61.3l-3.4-4.62C291.3,55.91,290,56.66,290.57,57.44Z"/><polygon class="cls-4" points="318.41 94 292.54 118.16 275.79 124.87 300.55 99.39 318.41 94"/><path class="cls-4" d="M317.88,93.47l-16.27,15.2-8.61,8a7.76,7.76,0,0,0-.84.78c-.29.38.44-.1,0,0a45.36,45.36,0,0,0-4.59,1.85l-12,4.79.73,1.25,15.81-16.27,8.08-8.32c.22-.22.64-.51.77-.78,0-.07.29-.24-.06,0s0,0,.16,0c1.68-.4,3.34-1,5-1.51l12.54-3.78a.75.75,0,0,0-.4-1.45l-10.83,3.27-6,1.82a3.43,3.43,0,0,0-1.63.8c-6.08,6-12,12.31-17.93,18.46l-6.52,6.71c-.49.5,0,1.55.73,1.25l10.32-4.13,5.67-2.27a4.32,4.32,0,0,0,1.48-.87l18.78-17.52,6.7-6.27C319.65,93.87,318.59,92.81,317.88,93.47Z"/><path class="cls-4" d="M267.92,31l1.36,6.68.19,1a.75.75,0,1,0,1.45-.39l-1.36-6.69-.19-.95a.76.76,0,0,0-.92-.53.77.77,0,0,0-.53.93Z"/><path class="cls-4" d="M285.31,33.67l-2.92,6.17-.41.87a.76.76,0,0,0,.27,1,.75.75,0,0,0,1-.27l2.93-6.17.41-.87a.78.78,0,0,0-.27-1,.76.76,0,0,0-1,.27Z"/><path class="cls-4" d="M299.27,44.41l-6,2.33-.85.33a.75.75,0,1,0,.4,1.45l6-2.34.85-.33a.77.77,0,0,0,.52-.92.75.75,0,0,0-.92-.52Z"/><line class="cls-24" x1="296.72" y1="97.61" x2="287.27" y2="106.64"/><path class="cls-4" d="M296.18,97.08l-8.26,7.9-1.18,1.13c-.7.67.36,1.73,1.06,1.06l8.26-7.9,1.19-1.13c.69-.67-.37-1.73-1.07-1.06Z"/><line class="cls-24" x1="294.71" y1="95.04" x2="290.23" y2="99.29"/><path class="cls-4" d="M294.18,94.51l-3.91,3.72-.57.53a.76.76,0,0,0,0,1.06.75.75,0,0,0,1.06,0l3.92-3.71.56-.54a.75.75,0,0,0,0-1.06.76.76,0,0,0-1.06,0Z"/><polygon class="cls-18" points="255.52 84.96 236.77 76.76 234.69 81.87 253.24 89.83 255.52 84.96"/><path class="cls-4" d="M255.9,84.31l-16.37-7.16-2.38-1a.78.78,0,0,0-1.11.45L234,81.67a.75.75,0,0,0,.35.85l16.19,7,2.35,1a.75.75,0,0,0,1-.27l2.29-4.86c.41-.87-.89-1.63-1.3-.76l-2.28,4.87,1-.27-16.2-7-2.35-1,.35.85L237.49,77l-1.1.45,16.37,7.16,2.38,1C256,86,256.78,84.7,255.9,84.31Z"/><path class="cls-4" d="M247.17,82.15a6.88,6.88,0,0,1,.54.54c.18.18.36.38.53.57l.28.35.07.08,0,0,.14.19a7.8,7.8,0,0,1,.5.77c0,.06.07.13.1.2s.11.25.06.12,0,.06,0,.1l.06.19a1.62,1.62,0,0,1,0,.19c0,.18,0-.19,0,0v.16c0,.19.06-.18,0,0a.78.78,0,0,0-.05.14s.1-.18,0-.08l0,.07c-.05.11.08-.08.05-.06s0,0-.05.06l-.06.06,0,0-.19.12c-.13.07,0,0,0,0s-.1,0-.12,0l-.3.09-.16,0c-.09,0-.16,0,0,0a9.18,9.18,0,0,1-1.89,0,.75.75,0,0,0,0,1.5,6,6,0,0,0,3.22-.36,1.84,1.84,0,0,0,1-1.77,6.55,6.55,0,0,0-2-3.55c-.24-.25-.49-.51-.75-.75a.77.77,0,0,0-1.06,0,.75.75,0,0,0,0,1.06Z"/><circle class="cls-4" cx="243.69" cy="82.73" r="0.98"/><path class="cls-4" d="M244,83.27l-.14,0h0c-.08,0,.09,0,0,0h-.19c.06,0,.07,0,0,0h-.05l-.11,0c-.08,0,.07,0,0,0l0,0-.06,0c-.08,0,0,0,0,0a.81.81,0,0,1-.1-.09s-.05,0-.05-.06.05.08,0,0l-.08-.13s0,0,0,0,0-.07,0-.08,0-.05,0-.07v0s0,0,0,0a.65.65,0,0,0,0-.14v0c0-.09,0,.09,0,0l0-.11s0-.06,0-.07,0,.06,0,0v0l.07-.11s-.06.07,0,0l0,0a.12.12,0,0,1,.05,0l0,0h0l0,0,0,0,.09,0s.08,0,0,0,0,0,0,0a.61.61,0,0,1,.13,0c.06,0-.09,0,0,0h.17s0,0,0,0,.09,0,.12,0l.06,0c.08,0-.07,0,0,0l.11.06c.07,0,0,0,0,0l.05,0s.1.08.1.1,0-.06,0,0a.21.21,0,0,0,0,.06l0,.07v0s0,.14,0,.17,0,0,0,0,0,.08,0,.1v.09s0,0,0,0,0,.11,0,.14,0,.06,0,.06,0-.06,0,0v0l0,0,0,0s0,0,0,0-.1.1-.1.11,0,0-.06,0,.05,0,0,0l0,0-.16.08a.37.37,0,0,0-.13.51.37.37,0,0,0,.51.13,1.33,1.33,0,0,0,.79-1.27,1.37,1.37,0,0,0-.95-1.25,1.4,1.4,0,0,0-1.5.51,1.35,1.35,0,0,0,1.57,2,.38.38,0,0,0,.26-.46A.37.37,0,0,0,244,83.27Z"/><circle class="cls-4" cx="239.4" cy="80.82" r="0.98"/><path class="cls-4" d="M239.67,81.36l-.14,0h-.05c-.08,0,.09,0,0,0h-.19q.09,0,0,0h0a.35.35,0,0,1-.11,0c-.08,0,.07,0,0,0l0,0-.07,0c-.07,0,0,0,0,0a.47.47,0,0,1-.1-.1.12.12,0,0,1,0,0s0,.08,0,0,0-.09-.07-.13,0,0,0,0,0-.06,0-.07,0,0,0-.07v0c0-.05,0,0,0,0a.65.65,0,0,0,0-.14v0c0-.09,0,.09,0,0l0-.11s0-.06,0-.07,0,.06,0,0v0l.07-.11s-.06.07,0,0,0,0,0,0a.12.12,0,0,1,.05-.05l0,0h0l0,0,0,0,.09,0h0c-.06,0,0,0,0,0l.13,0c.06,0-.09,0,0,0h.17s0,0,0,0,.09,0,.12,0l.06,0c.08,0-.07,0,0,0l.1.06c.08.05,0,0,0,0l.05.05s.1.08.1.1,0-.06,0,0l0,.06a.16.16,0,0,1,0,.07v0s0,.14.05.17,0,0,0,0,0,.08,0,.1v.09s0,0,0,0,0,.1,0,.13l0,.07s0-.06,0,0v0l0,0,0,0s0,0,0,0-.1.1-.1.11l-.06,0,0,0,0,0-.16.08a.37.37,0,0,0-.13.51A.37.37,0,0,0,240,82a1.33,1.33,0,0,0,.79-1.27,1.39,1.39,0,0,0-.95-1.25,1.35,1.35,0,1,0,.07,2.56.38.38,0,0,0,.26-.46A.37.37,0,0,0,239.67,81.36Z"/><path class="cls-23" d="M169.78,119.2c-7.59,12.61-26.72,37.37-62.28,68.86.25,1.75-50.24-32.6-29.28-54.28,28.64-29.62,32.57-35.2,50.15-44.8,6.13-3.34,44.78-19.4,51.48,7.4C181.59,103.31,177.12,107,169.78,119.2Z"/><g class="cls-25"><path class="cls-18" d="M150.74,97.67l-3.36.5-.47.07a.76.76,0,0,0-.53.92.77.77,0,0,0,.93.52l3.35-.49.48-.07a.76.76,0,0,0,.52-.92.78.78,0,0,0-.92-.53Z"/><path class="cls-18" d="M150,95.13l-3.35.5-.47.07a.75.75,0,0,0-.53.92.78.78,0,0,0,.92.52l3.36-.49.47-.07a.76.76,0,0,0,.53-.93.79.79,0,0,0-.93-.52Z"/><path class="cls-18" d="M133.07,93.84l-3.14,1.25-.45.18a.77.77,0,0,0-.53.92.75.75,0,0,0,.92.52L133,95.47l.45-.18a.78.78,0,0,0,.53-.93.76.76,0,0,0-.93-.52Z"/><path class="cls-18" d="M131.78,91.53l-3.15,1.25-.45.18a.77.77,0,0,0-.52.92.76.76,0,0,0,.92.53l3.14-1.25.46-.18a.77.77,0,0,0,.52-.92.76.76,0,0,0-.92-.53Z"/><path class="cls-18" d="M147.78,122.38l-2.93,1.7-.42.25a.77.77,0,0,0-.26,1,.75.75,0,0,0,1,.26l2.93-1.7.41-.25a.75.75,0,0,0,.27-1,.76.76,0,0,0-1-.27Z"/><path class="cls-18" d="M146.15,120.29,143.23,122l-.42.24a.75.75,0,0,0,.76,1.3l2.92-1.71.42-.24a.76.76,0,0,0,.27-1,.77.77,0,0,0-1-.27Z"/><path class="cls-18" d="M144,142.14l-1.09,3.21-.15.46a.76.76,0,0,0,.52.92.78.78,0,0,0,.93-.53l1.08-3.21.15-.45a.76.76,0,0,0-.52-.93.77.77,0,0,0-.92.53Z"/><path class="cls-18" d="M141.43,141.63l-1.08,3.22-.16.45a.75.75,0,0,0,1.45.4l1.08-3.21.16-.46a.76.76,0,0,0-.53-.92.77.77,0,0,0-.92.52Z"/><path class="cls-18" d="M103.82,149.29l-1.08,3.21-.15.46a.75.75,0,0,0,.52.92.77.77,0,0,0,.92-.52l1.08-3.22.16-.45a.75.75,0,1,0-1.45-.4Z"/><path class="cls-18" d="M101.22,148.79,100.14,152l-.15.45a.76.76,0,0,0,.52.93.77.77,0,0,0,.92-.53l1.09-3.21.15-.46a.75.75,0,0,0-.52-.92.78.78,0,0,0-.93.53Z"/><path class="cls-18" d="M113.1,174.23,112,177.44l-.15.46a.74.74,0,0,0,.52.92.75.75,0,0,0,.92-.52l1.09-3.21.15-.46a.74.74,0,0,0-.52-.92.77.77,0,0,0-.93.52Z"/><path class="cls-18" d="M110.51,173.73l-1.09,3.21-.15.46a.76.76,0,0,0,.52.92.79.79,0,0,0,.93-.52l1.08-3.22.15-.45a.74.74,0,0,0-.52-.92.75.75,0,0,0-.92.52Z"/><path class="cls-18" d="M100.8,120.43l-1.09,3.21-.15.46a.75.75,0,0,0,1.45.4l1.08-3.22.15-.45a.74.74,0,0,0-.52-.92.75.75,0,0,0-.92.52Z"/><path class="cls-18" d="M98.2,119.93l-1.08,3.21-.16.46a.76.76,0,0,0,.53.92.77.77,0,0,0,.92-.53l1.08-3.21.16-.45a.75.75,0,1,0-1.45-.4Z"/><path class="cls-18" d="M187.4,100.72l-2.93,1.71-.42.24a.76.76,0,0,0-.27,1,.77.77,0,0,0,1,.27l2.92-1.71.42-.24a.75.75,0,0,0-.75-1.3Z"/><path class="cls-18" d="M185.77,98.63l-2.92,1.71-.42.25a.75.75,0,0,0-.27,1,.76.76,0,0,0,1,.27l2.93-1.71.42-.24a.75.75,0,0,0-.76-1.3Z"/><path class="cls-18" d="M169.48,110.49l-.94,3.24-.14.47a.75.75,0,1,0,1.44.4l.95-3.24.14-.47a.75.75,0,0,0-.52-.92.77.77,0,0,0-.93.52Z"/><path class="cls-18" d="M166.87,110.09l-1,3.25-.14.47a.75.75,0,0,0,1.45.4l1-3.25.14-.47a.75.75,0,0,0-1.45-.4Z"/><path class="cls-18" d="M180.62,118l-1,3.24-.13.47a.75.75,0,1,0,1.44.4l1-3.24.14-.47a.75.75,0,0,0-.52-.92.77.77,0,0,0-.93.52Z"/><path class="cls-18" d="M178,117.6l-.95,3.24-.14.48a.76.76,0,0,0,.53.92.77.77,0,0,0,.92-.52l.95-3.25.14-.47a.75.75,0,0,0-1.45-.4Z"/><path class="cls-18" d="M126.61,135.34l-3.27.88-.46.13a.76.76,0,0,0-.53.92.77.77,0,0,0,.93.53l3.26-.89.47-.13a.75.75,0,1,0-.4-1.44Z"/><path class="cls-18" d="M125.59,132.9l-3.27.88-.47.13a.75.75,0,0,0-.52.92.76.76,0,0,0,.92.53l3.27-.89.46-.13a.75.75,0,1,0-.39-1.44Z"/><path class="cls-18" d="M88.32,138.33l-3.27.89-.46.13a.76.76,0,0,0-.53.92.77.77,0,0,0,.93.52l3.26-.89.47-.12a.75.75,0,1,0-.4-1.45Z"/><path class="cls-18" d="M87.3,135.89l-3.27.89-.47.13a.75.75,0,1,0,.4,1.44l3.27-.88.46-.13a.75.75,0,0,0-.39-1.45Z"/><path class="cls-18" d="M127,162.77l-3.27.88-.47.13a.75.75,0,0,0-.52.92.76.76,0,0,0,.92.53l3.27-.89.47-.13a.75.75,0,1,0-.4-1.44Z"/><path class="cls-18" d="M126,160.33l-3.27.89-.47.12a.75.75,0,0,0,.4,1.45l3.27-.89.47-.13a.74.74,0,0,0,.52-.92.75.75,0,0,0-.92-.52Z"/><path class="cls-18" d="M125.84,110.33l-.94,3.25-.13.47a.75.75,0,1,0,1.44.4l.94-3.25.13-.47a.75.75,0,1,0-1.44-.4Z"/><path class="cls-18" d="M123.22,109.94l-.93,3.25-.14.47a.76.76,0,0,0,.52.93.77.77,0,0,0,.93-.53l.93-3.25.13-.47a.75.75,0,0,0-.52-.92.76.76,0,0,0-.92.52Z"/></g><path class="cls-10" d="M166.15,95.35,154.9,121.91s1.64.65,4.44-2.43,8.79-22.78,8.79-22.78Z"/><path class="cls-4" d="M165.5,95l-9.84,23.23-1.41,3.33a.76.76,0,0,0,.45,1.1c1.87.68,4.19-1.47,5.23-2.7a18,18,0,0,0,2.55-4.81c2-4.73,3.64-9.63,5.21-14.53q.6-1.84,1.17-3.69a.79.79,0,0,0-.35-.85l-2-1.35c-.8-.54-1.55.76-.75,1.3l2,1.35-.35-.85q-1.32,4.32-2.78,8.58c-1.46,4.28-2.84,8.81-5.09,12.76a7.79,7.79,0,0,1-2.39,2.62c-.54.38-1.52.92-2.05.72l.44,1.1,9.84-23.23,1.41-3.32C167.16,94.85,165.87,94.08,165.5,95Z"/><path class="cls-23" d="M154.27,81.55a83.73,83.73,0,0,0-.25,9.1c.09,3.3-.05,11.95,4.18,13a3.56,3.56,0,0,0,2.67-.51c3.67-2.23,5-8.1,6-12,0,0-1.08,16.38,4.38,14.76S179,89.82,179,89.82"/><path class="cls-4" d="M153.52,81.55a101.74,101.74,0,0,0-.21,10.62,31.16,31.16,0,0,0,.8,7.27c.51,1.92,1.47,4.09,3.47,4.84,2.77,1,5.28-1.38,6.65-3.53,1.78-2.8,2.57-6.14,3.38-9.32l-1.47-.2a51,51,0,0,0,0,5.53c.12,2.7.28,5.89,1.69,8.28,1.3,2.18,3.61,2.2,5.49.69,2.51-2,3.76-5.51,4.7-8.48A49.75,49.75,0,0,0,179.72,90c.14-.94-1.3-1.35-1.45-.4-.71,4.53-1.89,9.69-4.59,13.47-1.09,1.54-3.31,3.42-4.63,1.12-1.23-2.15-1.34-5-1.45-7.45a51,51,0,0,1,0-5.53.75.75,0,0,0-1.47-.2c-.8,3.11-1.55,6.38-3.32,9.1-.91,1.39-2.58,3.27-4.45,2.84a3.74,3.74,0,0,1-2.32-2.38,21.18,21.18,0,0,1-1.26-7.82,100,100,0,0,1,.2-11.22c.07-1-1.43-1-1.5,0Z"/><path class="cls-4" d="M171.93,114.08a172.83,172.83,0,0,1-14.05,20.74,333.62,333.62,0,0,1-22.8,25.91q-7.77,8-15.91,15.67-4.48,4.22-9.06,8.33l-2.39,2.14a5.13,5.13,0,0,0-.87.81c-.23.33-.25.46.16,0-.12.12.53-.44.48-.35.1-.16,0,.11,0,0s-.12,0-.11,0A70.32,70.32,0,0,1,95,178.25c-6.24-5.38-12.18-11.43-16.48-18.51-3.77-6.2-6.46-14.06-2.94-21a22.44,22.44,0,0,1,4.07-5.33c2.7-2.79,5.39-5.6,8.08-8.4,4.15-4.33,8.28-8.68,12.47-13,5.35-5.48,10.81-10.94,17-15.45a86.07,86.07,0,0,1,18-10.22c9.72-3.93,21.36-7,31.7-3.76a22.22,22.22,0,0,1,7.42,3.91c.74.6,1.81-.45,1.06-1.06-9.22-7.44-22-6.33-32.73-3.25a83.13,83.13,0,0,0-21.77,10,105,105,0,0,0-17.08,14c-3.71,3.66-7.32,7.43-10.93,11.19-5.17,5.39-10.46,10.69-15.53,16.18a18.13,18.13,0,0,0-4.86,10.21,22.58,22.58,0,0,0,1.78,10.94c3.21,7.91,9.07,14.64,15.16,20.48A95.16,95.16,0,0,0,105,187.7a12,12,0,0,0,1.75,1,1.64,1.64,0,0,0,.72.19.88.88,0,0,0,.57-.23c.07-.07.1-.2.16-.26s0-.08,0-.1a1.38,1.38,0,0,0,0-.2c0-.05,0,0,.08.08-.12.12.42-.22.45-.23a6.52,6.52,0,0,0,.55-.5l1.29-1.15,2.53-2.28c1.58-1.44,3.16-2.88,4.72-4.33,3-2.76,5.89-5.54,8.79-8.37a385.37,385.37,0,0,0,27.17-29.12,196,196,0,0,0,15.35-20.58c1.41-2.22,2.74-4.49,4-6.77a.75.75,0,0,0-1.29-.75Z"/><path class="cls-4" d="M213.71,66.1l3.48-3.81.5-.55a.75.75,0,0,0-1.06-1.06l-3.49,3.82-.49.54a.75.75,0,0,0,1.06,1.06Z"/><path class="cls-4" d="M212.85,77.28l4,3.29.56.46a.76.76,0,0,0,1.06,0,.75.75,0,0,0,0-1.06l-4-3.29-.57-.46a.75.75,0,0,0-1.06,1.06Z"/><path class="cls-4" d="M213.18,72.16l4.87-.3.7,0a.75.75,0,0,0,0-1.5l-4.87.3-.7,0a.75.75,0,0,0,0,1.5Z"/><path class="cls-15" d="M201.19,25.54s5.23,32.63,3.66,50.87-17,14.62-24.41,10-6.6-20.1-6.6-20.1l-5.11-7.34.66-7.7,1.47-17.1,5.39-5.86Z"/><path class="cls-4" d="M200.47,25.74a290.63,290.63,0,0,1,3.9,40.13,66.49,66.49,0,0,1-.57,12.85c-.62,3.53-2.09,7.17-5.25,9.13-5,3.08-11.76,1.22-16.52-1.4-6.16-3.41-7.28-11.39-7.45-17.82,0-.74.08-1.53,0-2.27a4.14,4.14,0,0,0-1-1.69L171,60.84l-1.12-1.61a2.51,2.51,0,0,0-.34-.49c-.27-.21.07-.22,0,.16a26.17,26.17,0,0,0,.3-3.44l.34-4,.43-4.93.82-9.51a13.38,13.38,0,0,0,.23-2.67c-.07-.48-.39.36-.1.22s.84-.92,1.14-1.24l3.17-3.44c.17-.19.87-.73.91-1,0,.05-.75.09-.24.13a13.46,13.46,0,0,0,2.18-.24l3.76-.42L200,26.43l1.2-.14c.95-.1,1-1.6,0-1.5l-14.81,1.63-8.57.94a11.48,11.48,0,0,0-1.55.17c-.81.19-1.39,1.14-1.94,1.74l-3.27,3.55a2.78,2.78,0,0,0-1,1.57c-.34,2.58-.45,5.21-.67,7.81l-1.26,14.67a5.25,5.25,0,0,0,0,2.52,22.52,22.52,0,0,0,2.08,3l2.64,3.79a2.13,2.13,0,0,0,.3.42c.19.14,0-.43-.06-.28a6.43,6.43,0,0,0,0,.76,43.72,43.72,0,0,0,.75,8.62c.69,3.62,2,7.52,4.7,10.13a20.15,20.15,0,0,0,7.79,4.07,18.9,18.9,0,0,0,9,.76,11.33,11.33,0,0,0,7.45-4.91c2.33-3.48,2.8-7.8,3-11.89.47-9.31-.29-18.7-1.23-28q-1-9.78-2.47-19.51c0-.35-.1-.69-.16-1C201.76,24.39,200.31,24.8,200.47,25.74Z"/><g class="cls-26"><path class="cls-4" d="M184.42,60.58c2.75,2.29,9.76,6.59,19.32,1.39a.87.87,0,0,1,1.28.74l.06,1.65a.9.9,0,0,1-.18.57c-.82,1.08-4.39,5.09-11.42,4.47-6.58-.57-9.72-3.79-10.54-4.78a.89.89,0,0,1-.19-.63l-.11-2.85C182.71,60.44,183.88,60.13,184.42,60.58Z"/><path class="cls-4" d="M183.89,61.11A17.45,17.45,0,0,0,192,64.94a17,17,0,0,0,6-.08,18.76,18.76,0,0,0,3.59-1.07c.52-.21,1-.43,1.52-.68.21-.1.88-.56,1.12-.37,0,0,0,.32,0,.4.69,2.33-3.18,4.21-4.92,4.83a16,16,0,0,1-12.82-1.39,12.23,12.23,0,0,1-2-1.38c-.29-.26-.88-.67-1-1a4.92,4.92,0,0,1-.08-1.58c0-.48-.35-1.94.59-1.34s1.58-.78.76-1.3a2,2,0,0,0-2.38.16c-.59.52-.52,1.16-.5,1.85s0,1.36.08,2a2.61,2.61,0,0,0,.91,1.72c3.07,3.13,7.77,4.54,12.05,4.53a13.51,13.51,0,0,0,10.18-4.4,3.91,3.91,0,0,0,.48-3.75,1.65,1.65,0,0,0-2.26-.75,28.69,28.69,0,0,1-4.68,1.86A15.53,15.53,0,0,1,185,60.05C184.21,59.44,183.15,60.5,183.89,61.11Z"/><path class="cls-4" d="M204.66,75.89c-.91,1.49-5,7.46-12.35,7.52h-.06c-.39,0-5-.35-7.72-3-.56-.55-.82-.06-.78.73l.37,7.07a1,1,0,0,0,0,.24l1.31,3.79a.89.89,0,0,0,.75.58c2.48.21,12.26,1,12.4,1.45S203.7,91,205,90.06a.86.86,0,0,0,.35-.62l.81-9.43.31-3.63a.86.86,0,0,0-1-.93l-.21,0A.89.89,0,0,0,204.66,75.89Z"/><path class="cls-4" d="M204,75.51A15.76,15.76,0,0,1,198,81.25a11.57,11.57,0,0,1-9.82.48,9,9,0,0,1-2.71-1.57c-.56-.47-1.25-1.14-2-.52s-.42,2-.37,2.87l.22,4.33a8.24,8.24,0,0,0,.26,2.11c.38,1.14.74,2.32,1.2,3.43.53,1.31,1.88,1.18,3.07,1.29,3.16.27,6.36.48,9.49,1,.27,0,.82.18.93.19s-.61-.26-.15-.1c.07,0,.16.14.26.18a1,1,0,0,0,.63,0c1.19-.28,2.42-1.41,3.39-2.09l1.89-1.34a6.39,6.39,0,0,0,1.56-1.26,5.19,5.19,0,0,0,.41-2.35l.68-7.91c.1-1.15.27-2.32.3-3.48a1.73,1.73,0,0,0-3.09-1.17c-.61.74.44,1.8,1.06,1.06s.52.17.5.49l-.17,1.92-.14,1.7-.63,7.22c-.05.59.05,1.39-.34,1.82A8.13,8.13,0,0,1,203,90.63q-1,.7-1.95,1.38c-.53.36-1.06.72-1.61,1.06a3.65,3.65,0,0,0-.7.4c-.19.37,1,.47.3.09a6.72,6.72,0,0,0-2.14-.47c-2.92-.4-5.87-.65-8.81-.91a6.21,6.21,0,0,1-1.56-.13c-.4-.17-.4-.41-.55-.85a25.21,25.21,0,0,1-1-3,15.5,15.5,0,0,1-.14-2.36l-.2-3.85a5,5,0,0,0,0-.86c0-.1.09,0,0-.24v-.19c-.57,0-.66.18-.27.41.17.32.85.69,1.14.89A13.61,13.61,0,0,0,190,83.85c6.15,1.27,12.11-2.43,15.27-7.58A.75.75,0,0,0,204,75.51Z"/></g><path class="cls-4" d="M200.47,25.74a291.37,291.37,0,0,1,3.9,40.3,63,63,0,0,1-.63,13c-.66,3.45-2.16,7-5.28,8.84-5,3-11.77,1.14-16.51-1.5-6.1-3.4-7.12-11.7-7.48-18q-.09-1.59-.09-3.18a1.73,1.73,0,0,0-.32-1.34c-.81-1.06-1.79-2-2.67-3L170,59.25c-.17-.19-.32-.4-.5-.57-.59-.53.33.22,0,.25.26,0,.94-11,1.07-12.42l.81-9.42a16.67,16.67,0,0,0,.23-2.73c0-.48-.31.29-.09.19s.75-.81,1-1.09l3.31-3.59c.19-.21.86-.71.91-1,0,.06-.76.08-.27.13a11.86,11.86,0,0,0,2.21-.24l3.76-.42L200,26.43l1.2-.14c.95-.1,1-1.6,0-1.5l-14.81,1.63-8.57.94a13.6,13.6,0,0,0-1.55.17c-.83.19-1.46,1.22-2,1.82L170.94,33a2.42,2.42,0,0,0-.85,1.47c-.34,2.62-.46,5.28-.68,7.9l-1.27,14.77c-.07.81-.36,1.76.12,2.45a34,34,0,0,0,2.64,3l1.47,1.67a5.13,5.13,0,0,0,.54.6c.57.46-.47-.13,0-.29a10.72,10.72,0,0,0,0,1.88,52,52,0,0,0,1,9.47c.74,3.5,2,7.29,4.54,9.88,2,2,5,3.23,7.65,4.08a19.07,19.07,0,0,0,9.11.85A11.38,11.38,0,0,0,202.63,86c2.45-3.51,2.93-7.94,3.14-12.1.47-9.31-.29-18.7-1.23-28q-1-9.78-2.47-19.51c0-.35-.1-.69-.16-1C201.76,24.39,200.31,24.8,200.47,25.74Z"/><path class="cls-4" d="M167.17,53.79l-.49-17a18.28,18.28,0,0,1,.59-5.26c1.67-6.07,5.37-6.87,5.37-6.87,7.5-2.75,22.26-2.91,23.75-2.92a1,1,0,0,1,.24,0,6.9,6.9,0,0,1,5.28,7.34.87.87,0,0,1-.83.83l-19.14.8c-.29,0-2.57.6-2.18,2.56,1.39,7.05-1.8,9.77-3.21,10.57a.87.87,0,0,0-.45.81s.32,7.59.15,8.26l-.18,6.17c-.76,4.59-2.87,1-3.37.35l-1-5.45Z"/><path class="cls-4" d="M167.92,53.79l-.3-10.35c-.13-4.37-.74-9.13.89-13.28a7.94,7.94,0,0,1,4.16-4.74,35.86,35.86,0,0,1,7.24-1.73,114.45,114.45,0,0,1,15.91-1.21c2.46,0,4.55,2.12,5.12,4.4.11.44.52,2,.08,2.3-.2.14-1,0-1.2.05l-13,.55c-2.25.09-7.07-.57-7.8,2.48a6.89,6.89,0,0,0,.2,2.43,14.48,14.48,0,0,1,.09,2.87,8.31,8.31,0,0,1-1.25,3.85c-.85,1.28-2.7,1.86-2.71,3.51,0,3.8.16,7.31,0,11,0,1,0,2-.08,2.92a4.64,4.64,0,0,1-.24,1.21c-.23.66-.24.77-.73.35a3.34,3.34,0,0,1-1-1.39c-.26-1-.37-2-.54-3l-.38-2.13a.74.74,0,0,0-.72-.55L167.17,53c-1,0-1,1.45,0,1.5l4.57.21-.73-.56.44,2.49a20.14,20.14,0,0,0,.52,2.91c.42,1.23,2.19,3.25,3.61,2.32,1.67-1.09,1.28-4.32,1.33-6,.06-2,.16-3,.14-4.86,0-1.33-.06-2.66-.11-4a7.91,7.91,0,0,1-.09-2.37c.23-.57,1.37-1.1,1.8-1.58a8.28,8.28,0,0,0,1.65-2.9,12.24,12.24,0,0,0,.49-5c-.08-.79-.57-2.07-.22-2.81a2,2,0,0,1,1.36-.9,25.54,25.54,0,0,1,3.24-.14l14.23-.6c1.35-.06,3.11.11,3.26-1.72a7.78,7.78,0,0,0-2.36-6.14,7,7,0,0,0-4-1.91,19.65,19.65,0,0,0-2,0c-2.89.07-5.78.23-8.65.49A71.16,71.16,0,0,0,175.59,23a13.94,13.94,0,0,0-5,1.86c-4.47,3.23-4.74,9.24-4.6,14.26l.39,13.56,0,1.11A.75.75,0,0,0,167.92,53.79Z"/><path class="cls-4" d="M202.24,43.87c-2.9-4.48-8.44-7.51-13.75-5.86a18,18,0,0,0-7.41,5c-.67.7.39,1.76,1.06,1.06,3.59-3.74,8.6-6.61,13.69-4a13.73,13.73,0,0,1,5.11,4.56c.52.81,1.82.06,1.3-.76Z"/><path class="cls-4" d="M193.24,47.94a25.91,25.91,0,0,0,.32,3.82,12.4,12.4,0,0,0,2.17,6,4,4,0,0,0,4,1.52,3.66,3.66,0,0,0,2.18-2,10.11,10.11,0,0,0,.94-3.5,27,27,0,0,0-.11-6A.79.79,0,0,0,202,47a.75.75,0,0,0-.75.75c.29,2.69.55,5.7-.41,8.29a4.84,4.84,0,0,1-.41.83,1,1,0,0,1-.11.17s-.17.23,0,.06a3.47,3.47,0,0,1-.25.29l-.23.21c.16-.14,0,0-.1.06l-.2.11c-.15.1.18,0,0,0a2.1,2.1,0,0,0-.24.06c-.06,0,.26,0,.15,0s-.33,0-.49,0A2.43,2.43,0,0,1,197,57c-1.18-1.3-1.64-3.4-1.93-5.17a24.44,24.44,0,0,1-.33-3.87.75.75,0,0,0-1.5,0Z"/><path class="cls-4" d="M183.33,48.52a29.5,29.5,0,0,0,.28,3.87,13.84,13.84,0,0,0,2,6.37,3.91,3.91,0,0,0,4.1,1.76,4.16,4.16,0,0,0,2.28-2.2c1.51-3,1.32-6.78,1-10-.08-.95-1.58-1-1.5,0,.26,2.84.44,6-.58,8.71a5.42,5.42,0,0,1-.44.92l-.26.39s.06-.06,0,0l-.15.18-.23.22-.12.1c-.05,0,.14-.09,0,0s-.26.16-.4.23c.25-.12,0,0-.07,0h0s.23,0,0,0a2.17,2.17,0,0,1-.36,0,2.41,2.41,0,0,1-1.85-1c-1.19-1.44-1.61-3.66-1.88-5.5a27.68,27.68,0,0,1-.31-4.07.75.75,0,0,0-1.5,0Z"/><path class="cls-4" d="M182,64.33,183,80l.14,2.25c.06,1,1.56,1,1.5,0l-1-15.63-.14-2.25c-.06-1-1.56-1-1.5,0Z"/><path class="cls-4" d="M186.77,71s6.75,5,15.19,0c0,0,1.22,6.21-5.76,7.82C188.91,80.46,186.77,71,186.77,71Z"/><path class="cls-4" d="M186.4,71.59a12.73,12.73,0,0,0,4.77,2,15.57,15.57,0,0,0,11.16-2l-1.1-.45c0,.19,0,0,0,0,0,.19,0,.39,0,.58a6.7,6.7,0,0,1-.14,1.67,5.79,5.79,0,0,1-3.34,4,6.47,6.47,0,0,1-6.16-.07,9.11,9.11,0,0,1-3.14-3.86,12.65,12.65,0,0,1-1-2.78c-.22-.94-1.66-.55-1.45.39a12.41,12.41,0,0,0,4.66,7.43c4,2.67,10.19.44,11.69-4.06a7.63,7.63,0,0,0,.28-3.76.75.75,0,0,0-1.1-.45c-4.29,2.5-10.22,3.1-14.43,0C186.38,69.72,185.63,71,186.4,71.59Z"/><g class="cls-27"><path class="cls-18" d="M186.45,71.35a9.86,9.86,0,0,0,16.33.34l.22-.34c1.29-2,0-.2,0-.2l-.22-1.94-7,.3-9.31.46Z"/><path class="cls-4" d="M185.8,71.73A10.49,10.49,0,0,0,193,76.47a10.85,10.85,0,0,0,7.28-1.39A10.29,10.29,0,0,0,203,72.61c.41-.52,1.49-1.67,1.27-2.42a.76.76,0,0,0-1.25-.33,4.12,4.12,0,0,0-.69.91l1.4.38-.22-1.94a.77.77,0,0,0-.75-.75q-6.61.29-13.21.61l-3.12.15a.76.76,0,0,0-.75.75v1.38a.75.75,0,0,0,1.5,0V70l-.75.75c4.21-.21,8.43-.42,12.66-.6l3.67-.16-.75-.75.22,1.94a.75.75,0,0,0,1.39.38,4,4,0,0,1,.46-.61l-1.26-.33c-.13-.46.12-.6-.15-.16-.14.24-.29.48-.45.71a9.3,9.3,0,0,1-.91,1.16A9.12,9.12,0,0,1,187.09,71,.75.75,0,0,0,185.8,71.73Z"/></g><path class="cls-4" d="M186.4,71.59a12.73,12.73,0,0,0,4.77,2,15.57,15.57,0,0,0,11.16-2l-1.1-.45c0,.19,0,0,0,0,0,.19,0,.39,0,.58a6.7,6.7,0,0,1-.14,1.67,5.79,5.79,0,0,1-3.34,4,6.47,6.47,0,0,1-6.16-.07,9.11,9.11,0,0,1-3.14-3.86,12.65,12.65,0,0,1-1-2.78c-.22-.94-1.66-.55-1.45.39a12.41,12.41,0,0,0,4.66,7.43c4,2.67,10.19.44,11.69-4.06a7.63,7.63,0,0,0,.28-3.76.75.75,0,0,0-1.1-.45c-4.29,2.5-10.22,3.1-14.43,0C186.38,69.72,185.63,71,186.4,71.59Z"/><path class="cls-15" d="M174.42,65.47c-1.33,1.12-4.83,1.59-6.7,1.42-3.73-.32-5.46-3.52-5.14-7.26s2.57-6.59,6.31-6.27c0,0,5.35.62,5.38,5.82S174.42,65.47,174.42,65.47Z"/><path class="cls-4" d="M173,53.91a7,7,0,0,0-7-.58,7.54,7.54,0,0,0,3.85,14.37c1.92-.2,3.47-1.22,5.11-2.14.84-.47.09-1.77-.76-1.3s-1.7,1-2.6,1.45a6,6,0,0,1-5.78-10.58,6,6,0,0,1,3-1,5.42,5.42,0,0,1,3.37,1.05c.8.54,1.55-.76.76-1.3Z"/><path class="cls-4" d="M173.72,60.84,170.31,58l-.48-.41a.77.77,0,0,0-1.06,0,.75.75,0,0,0,0,1.06l3.41,2.89.48.41a.77.77,0,0,0,1.06,0,.75.75,0,0,0,0-1.06Z"/><path class="cls-28" d="M162.8,63.71a28.49,28.49,0,0,0,10.31,14.22,16.52,16.52,0,0,0,7,2.75c.95.13,1.35-1.31.4-1.44-7.58-1-12.73-7.64-15.63-14.24a16.07,16.07,0,0,1-.67-1.69c-.31-.91-1.76-.52-1.45.4Z"/><circle class="cls-18" cx="182.46" cy="80.21" r="3.59"/><path class="cls-28" d="M185.29,80.53A2.92,2.92,0,0,1,183,83a2.84,2.84,0,1,1,.43-5.45,2.9,2.9,0,0,1,1.82,3.18.76.76,0,0,0,.75.75.77.77,0,0,0,.75-.75,4.42,4.42,0,1,0,0,.19.77.77,0,0,0-.52-.92A.75.75,0,0,0,185.29,80.53Z"/><ellipse class="cls-18" cx="169.46" cy="61.67" rx="8.18" ry="5.35" transform="translate(97.56 227.05) rotate(-86.5)"/><path class="cls-28" d="M163.37,61.34c-.16,3.07.68,6.94,3.55,8.62,2.62,1.54,5.43,0,6.92-2.35A12.21,12.21,0,0,0,175,57.34c-.92-2.62-3.19-5.18-6.23-4.47-3.61.84-5.12,5.22-5.35,8.47-.07,1,1.43,1,1.5,0,.17-2.46,1.12-5.57,3.51-6.76,2.22-1.11,4.15.78,5,2.73a10.91,10.91,0,0,1-.21,8.45c-.85,1.85-2.74,4-5,3.13-2.78-1.08-3.39-5-3.26-7.55C164.91,60.38,163.41,60.38,163.37,61.34Z"/><ellipse class="cls-18" cx="166.41" cy="61.44" rx="5.44" ry="3.56" transform="translate(94.92 223.79) rotate(-86.5)"/><path class="cls-28" d="M162.11,61.22c-.11,2.13.5,4.79,2.48,6s3.88,0,4.95-1.65a8.39,8.39,0,0,0,.76-7c-.66-1.87-2.28-3.65-4.45-3.14-2.52.59-3.58,3.6-3.74,5.87-.07,1,1.43,1,1.5,0,.11-1.53.7-3.54,2.21-4.27,1.32-.65,2.44.52,2.93,1.66a7,7,0,0,1-.11,5.43c-.51,1.11-1.66,2.52-3,2-1.72-.69-2.07-3.19-2-4.78C163.65,60.26,162.15,60.26,162.11,61.22Z"/><path class="cls-15" d="M220.67,150.57c-2.28.51-15.7,4.62-15.7,4.62l15.33-5.66s3.39-2.57-.16-3.29-17,4.46-16.89,4c.56-2.74,5.67-4.81,3-7-3.52-2.85-13.56,11.65-17.57,12.21-7.46,1-26.25-1.7-32.42-1.41-3.82-11.68-3.89-16.6-7.23-26.51,0,0-18.7,1.62-25.17,13.35-.18.33,5.88,17.56,14.89,28,2.74,3.18,17.9,7.24,21.42,7.46,17.76,1.09,40-4.42,44.44-6,5.82-2.09,13.43-5.69,10.21-7.35-1-.53-4.08.07-6.87,1.1,5.33-2.22,13.36-5.49,13.48-7,.14-1.88-10.17.93-14.52,2.23,3.82-1.41,13.72-4.87,14.54-5.29C225.36,152,223.17,150,220.67,150.57Z"/><path class="cls-4" d="M114.21,112.9,121,134.22c2.83,8.95,5.48,18,10.35,26.09,3.22,5.39,7.48,10.73,13.38,13.29,5.29,2.3,11.17,3,16.88,3.24,11.95.45,24.08-1.28,35.73-3.87a62.66,62.66,0,0,0,10.32-3c2.67-1.09,6.16-2.3,8.07-4.58,1.6-1.89-.3-3.42-2.29-3.35a18.75,18.75,0,0,0-5.66,1.32l.4,1.44c2.76-1.15,5.54-2.28,8.25-3.55,1.72-.8,4.13-1.66,5.36-3.2.92-1.16,0-2.16-1.22-2.3a19.44,19.44,0,0,0-5.91.77c-2.66.59-5.3,1.31-7.92,2.09l.4,1.45c3.26-1.21,6.54-2.36,9.81-3.53,2.14-.77,5.83-1.51,7.1-3.62a1.91,1.91,0,0,0-1-2.83,5,5,0,0,0-3.41,0c-2.77.73-5.51,1.58-8.25,2.4l-6.61,2,.4,1.45,10.18-3.75c1.62-.6,3.26-1.16,4.86-1.8a3.68,3.68,0,0,0,2.29-2.78c.28-4.54-10.85-.65-12.58-.12-2.08.63-4.13,1.36-6.23,1.93-.23.07-.4.13-.39.1s.78.45.5.48c-.06,0,.42-.34.06-.14.12-.07.27-.36.36-.47.69-.83,1.51-1.54,2.19-2.39,1.12-1.39,1.9-3.53-.12-4.59-1.55-.81-3.47.2-4.79,1-4.45,2.74-8,6.8-11.84,10.29a26,26,0,0,0-2,1.71c-.26.3,0,.09,0,.09a1.32,1.32,0,0,1-.28,0c-1-.12-2.08-.11-3.11-.17l-12.49-.68c-7.79-.42-15.6-1.05-23.4-1.27l-.45,0c-1-.06-1,1.44,0,1.5l19,1,13.6.74,4.75.26a18,18,0,0,0,2.32.13c1.14-.1,2.33-1.51,3.13-2.23,1.9-1.73,3.72-3.55,5.61-5.29a40,40,0,0,1,5.93-4.78c.67-.41,3.58-2.1,3.83-.33.12.84-1,1.86-1.48,2.4a17,17,0,0,0-1.93,2.14c-.84,1.3,0,2.29,1.41,1.94,4.48-1.15,8.76-3,13.35-3.75a7.12,7.12,0,0,1,2.68-.09c1.6.37.45,1.13-.16,1.85-.3.35.16,0,.07,0a5.2,5.2,0,0,0-.55.21l-2,.73-11.82,4.37-.89.32c-.89.33-.54,1.74.4,1.45,4.07-1.25,8.14-2.48,12.23-3.66.66-.2,5.48-1.9,5.41-.35,0,.95-2,1.55-2.76,1.85-1.22.46-2.46.9-3.69,1.34-3.22,1.16-6.45,2.29-9.67,3.48-.89.33-.54,1.73.4,1.45,2.42-.73,4.86-1.4,7.33-2,1.2-.28,2.42-.54,3.64-.71a13.49,13.49,0,0,1,1.41-.15,8.43,8.43,0,0,0,1.12,0s.21.08.22.07c-.22.06-.09-.33-.16-.33s-.64.58-.8.7a23.06,23.06,0,0,1-3.16,1.74c-2.93,1.43-5.95,2.65-9,3.91-.87.36-.53,1.78.4,1.44a16.2,16.2,0,0,1,5.55-1.27c.28,0,1.07,0,1.15.44,0,.25-.57.75-.73.89-2.45,2.16-6,3.38-9,4.5a65.29,65.29,0,0,1-8.63,2.3c-11.09,2.43-22.56,4-33.93,3.75-5.53-.15-11.23-.75-16.42-2.79-5.79-2.29-9.95-7.25-13.14-12.43-4.77-7.74-7.4-16.34-10.12-24.94l-7-22.21-.15-.5c-.29-.92-1.74-.52-1.45.4Z"/><path class="cls-10" d="M147.39,121.37s-19.42.75-25.84,12.37c-.07.13,1.36,4,2.68,8.17,5.88-10.59,22.43-12,25.22-12.18"/><path class="cls-4" d="M147.39,120.62a45.63,45.63,0,0,0-10,1.64c-5.79,1.58-11.68,4.33-15.34,9.28a5.4,5.4,0,0,0-1.28,2.2,3.74,3.74,0,0,0,.32,1.21c.79,2.39,1.63,4.76,2.39,7.16a.76.76,0,0,0,1.37.18c4.69-8.27,15.67-11.27,24.57-11.81,1-.06,1-1.56,0-1.5-9.44.58-20.89,3.8-25.86,12.55l1.37.18c-.67-2.09-1.38-4.16-2.08-6.24a10.49,10.49,0,0,1-.54-1.64c-.07-.41-.12.17.08-.09s.4-.66.62-1a19.68,19.68,0,0,1,6.61-5.79,40.36,40.36,0,0,1,14.46-4.53c1.09-.15,2.19-.28,3.28-.32s1-1.54,0-1.5Z"/><path class="cls-4" d="M144.08,112.27l3.83,14.1L154,148.76l1.41,5.22a.75.75,0,0,0,1.45-.4L153,139.47l-6.09-22.38-1.42-5.22a.75.75,0,0,0-1.44.4Z"/></g><path class="cls-4" d="M166.4,178.75c-7.48,4.54-16.49,5.5-25,4.38A68.65,68.65,0,0,1,114,172.87a71.46,71.46,0,0,1-21.8-21c-5.39-8.25-8.71-17.88-8.42-27.8.33-11.53,5.56-22.2,12.92-30.88,1.11-1.31,2.27-2.58,3.46-3.82.67-.7-.38-1.76-1.06-1.06-8.41,8.72-15,19.44-16.5,31.64-1.27,10.13,1.24,20.34,6.19,29.19a70.41,70.41,0,0,0,21.08,22.77,72.83,72.83,0,0,0,27.82,12.14c8.86,1.69,18.35,1.44,26.61-2.49,1-.46,1.9-1,2.82-1.52s.07-1.8-.76-1.3Z"/><path class="cls-4" d="M464.68,243.52c4.51,2.43,8.78,5.75,11,10.49a17.63,17.63,0,0,1,.6,12.53c-1.51,5.11-4.58,9.7-8,13.73a85.86,85.86,0,0,1-14.87,13.5,137.34,137.34,0,0,1-20.14,12.08,158.35,158.35,0,0,1-23.61,9.39,147.45,147.45,0,0,1-25.61,5.55,116.94,116.94,0,0,1-25.64.43,86.35,86.35,0,0,1-24.37-5.9,70.68,70.68,0,0,1-21.17-13.45q-2.37-2.21-4.53-4.6c-.65-.72-1.71.34-1.06,1.06a71.57,71.57,0,0,0,20.63,15.82,82.63,82.63,0,0,0,24.13,7.74,110.05,110.05,0,0,0,26.15,1,142.83,142.83,0,0,0,26.2-4.55,162.1,162.1,0,0,0,24.75-8.86,144.89,144.89,0,0,0,21.5-11.92A97.54,97.54,0,0,0,467,283.92a47.71,47.71,0,0,0,9.74-14.24,21.23,21.23,0,0,0,1.31-13.51c-1.31-4.87-4.75-8.73-8.79-11.59a38.66,38.66,0,0,0-3.84-2.35c-.85-.46-1.61.84-.76,1.29Z"/><g class="cls-2"><path class="cls-3" d="M158.91,425.59H259.64S252.29,389.7,229,389.7s-28.11,20.76-28.11,20.76S172.31,384.52,158.91,425.59Z"/><path class="cls-3" d="M202.79,405.28s-2.65,5.85-2.3,10.84"/></g><path class="cls-4" d="M86.58,276.13c3.2,3.33,6.54,6.68,10.07,10l47.5-9.5Z"/><path class="cls-4" d="M86.05,276.66q2.6,2.7,5.25,5.34c.84.84,1.69,1.67,2.55,2.5l1.39,1.34c.34.32.73.91,1.21,1a4.83,4.83,0,0,0,1.76-.27l10.09-2,28.86-5.77,7.19-1.44c.85-.16.63-1.46-.2-1.47l-19.45-.17-31-.28-7.12-.06a.75.75,0,0,0,0,1.5l19.46.17,31,.28,7.11.06-.2-1.47-16,3.21-25.58,5.11-5.88,1.18.73.19q-5.16-4.89-10.07-10C86.44,274.9,85.38,276,86.05,276.66Z"/><path class="cls-3" d="M20.64,276.67h116c2.49,0,5,0,7.47,0a24.94,24.94,0,0,0-3.54-18.45c-6.18-9.4-17.83-13.75-27.33-6.4-3,2.3-5.49,5.11-8.26,7.65,0-3.87-1.82-7.69-3.27-11.2a28.21,28.21,0,0,0-6.16-9.43,25.17,25.17,0,0,0-20-7.25C61.64,233,51.08,246.31,50.8,259.92c-5.41-2.57-11-4.67-17-2.57C25.8,260.16,22.31,269.06,20.64,276.67Z"/><path class="cls-4" d="M20.64,277.42h96.18c9.11,0,18.23.11,27.33,0a.77.77,0,0,0,.73-.55,25.84,25.84,0,0,0-7.78-23.92c-5.49-5-13.3-7.2-20.3-4.11-4.91,2.17-8.45,6.53-12.31,10.1l1.28.53c-.07-3.52-1.36-6.76-2.7-10a37.76,37.76,0,0,0-4.47-8.36,26.59,26.59,0,0,0-14.89-9.75c-11-2.59-21.84,2.75-28.11,11.78a31,31,0,0,0-5.55,16.77l1.12-.65c-3.79-1.8-7.81-3.47-12.08-3.52A15.87,15.87,0,0,0,29,259.2c-5.24,4.15-7.65,11-9.06,17.27-.21.94,1.24,1.34,1.45.4,1.29-5.77,3.37-11.91,7.9-16a14.44,14.44,0,0,1,9.61-3.67c4.07,0,7.93,1.61,11.55,3.33a.76.76,0,0,0,1.13-.65A29.65,29.65,0,0,1,66,235.45a24.28,24.28,0,0,1,29.93,4.81,29.27,29.27,0,0,1,5.25,8.59c1.43,3.39,3,6.85,3.08,10.59a.76.76,0,0,0,1.28.53c3.2-3,6.12-6.45,9.87-8.75a15.85,15.85,0,0,1,10.14-2.28c7.34.87,13.48,6.64,16.34,13.23a24.33,24.33,0,0,1,1.53,14.27l.72-.55c-16.05.25-32.13,0-48.18,0H20.64A.75.75,0,0,0,20.64,277.42Z"/><path class="cls-4" d="M57.11,264.38a21.4,21.4,0,0,0-1.7-1.87,21.71,21.71,0,0,0-4.19-3.32.75.75,0,0,0-.76,1.3,19.23,19.23,0,0,1,3.94,3.14,20.24,20.24,0,0,1,1.65,1.81.75.75,0,0,0,1.06,0,.75.75,0,0,0,0-1.06Z"/><path class="cls-10" d="M282.68,68,265.42,84.28l-2.49,2.34c-.71.67.36,1.73,1.06,1.07l17.26-16.27,2.49-2.35c.71-.66-.36-1.72-1.06-1.06Z"/><path class="cls-10" d="M293,62.3l-4.38,1.81-.63.26a.78.78,0,0,0-.52.92.75.75,0,0,0,.92.53L292.76,64l.62-.26a.78.78,0,0,0,.53-.92.77.77,0,0,0-.93-.53Z"/></svg>